<?xml version="1.0" encoding="utf-8"?>
<!-- Generator: Adobe Illustrator 25.0.0, SVG Export Plug-In . SVG Version: 6.00 Build 0)  -->
<svg version="1.1" xmlns="http://www.w3.org/2000/svg" xmlns:xlink="http://www.w3.org/1999/xlink" x="0px" y="0px"
	 viewBox="0 0 1366 768" style="enable-background:new 0 0 1366 768;" xml:space="preserve">
<style type="text/css">
	.st0{fill:url(#SVGID_1_);}
	.st1{fill:none;stroke:#7200BC;stroke-width:18;stroke-linecap:round;stroke-linejoin:round;stroke-miterlimit:128;}
	.st2{fill:#6F42C1;}
	.st3{fill-rule:evenodd;clip-rule:evenodd;fill:url(#arrow_x5F_right_x5F_up-_x5B__x23_297_x5D__2_);}
</style>
<g id="Layer_1">
	<g>
		<linearGradient id="SVGID_1_" gradientUnits="userSpaceOnUse" x1="683" y1="12" x2="683" y2="756.1151">
			<stop  offset="0" style="stop-color:#FFFFFF"/>
			<stop  offset="0.8881" style="stop-color:#6F42C1"/>
		</linearGradient>
		<rect class="st0" width="1366" height="768"/>
	</g>
</g>
<g id="Layer_2">
	<path class="st1" d="M1176.5,617c44.46,0,80.5-36.15,80.5-80.75c0-44.6-36.04-80.75-80.5-80.75c-44.46,0-80.5,36.15-80.5,80.75
		C1096,580.85,1132.04,617,1176.5,617z"/>
	<g>
		<g>
			<path class="st2" d="M1182.14,570.08v8.88c0,1.43-0.57,2.81-1.58,3.83c-1.01,1.02-2.38,1.58-3.81,1.58
				c-1.43,0-2.8-0.57-3.81-1.58c-1.01-1.01-1.58-2.39-1.58-3.83v-9.12c-3.57-0.59-6.99-1.88-10.06-3.81
				c-3.07-1.93-5.72-4.45-7.81-7.42c-0.76-0.97-1.18-2.16-1.21-3.39c0-0.7,0.14-1.39,0.41-2.04c0.27-0.64,0.68-1.22,1.18-1.71
				c0.5-0.48,1.1-0.86,1.75-1.1c0.65-0.25,1.35-0.35,2.05-0.32c0.69,0,1.37,0.15,2,0.44c0.63,0.29,1.18,0.72,1.62,1.26
				c2.58,3.37,6.07,5.93,10.06,7.35v-20.51c-10.71-4.2-16.1-10.5-16.1-18.65c0.16-4.37,1.87-8.53,4.82-11.74
				c2.95-3.21,6.95-5.26,11.28-5.78v-8.88c0-1.43,0.57-2.81,1.58-3.82c1.01-1.01,2.38-1.59,3.81-1.59c1.43,0,2.8,0.57,3.81,1.59
				c1.01,1.01,1.58,2.39,1.58,3.82v8.8c3,0.47,5.87,1.54,8.44,3.15c2.57,1.61,4.8,3.72,6.53,6.21c0.77,0.91,1.22,2.04,1.29,3.23
				c0.02,0.69-0.1,1.38-0.34,2.03c-0.25,0.65-0.63,1.24-1.11,1.73s-1.06,0.89-1.69,1.16c-0.64,0.27-1.32,0.41-2.01,0.41
				c-0.72,0-1.43-0.16-2.09-0.47c-0.65-0.31-1.23-0.75-1.7-1.3c-1.92-2.41-4.45-4.25-7.33-5.33v18.17l2.01,0.81
				c10.22,4.04,16.58,9.85,16.58,19.06c-0.12,4.93-2.11,9.63-5.56,13.14C1191.71,567.84,1187.05,569.9,1182.14,570.08z
				 M1171.35,526.64v-13.16c-1.3,0.47-2.42,1.34-3.2,2.49c-0.78,1.14-1.18,2.51-1.15,3.89c-0.01,1.43,0.39,2.84,1.16,4.04
				C1168.94,525.11,1170.04,526.06,1171.35,526.64z M1188.98,551.43c0-3.88-2.66-6.22-6.84-8.08v16.15
				c1.92-0.29,3.67-1.27,4.93-2.75C1188.32,555.27,1189,553.38,1188.98,551.43z"/>
		</g>
	</g>
	<path class="st1" d="M844,698.25c44.46,0,80.5-36.15,80.5-80.75c0-44.6-36.04-80.75-80.5-80.75c-44.46,0-80.5,36.15-80.5,80.75
		C763.5,662.1,799.54,698.25,844,698.25z"/>
	<g>
		<g>
			<path class="st2" d="M849.64,651.33v8.88c0,1.43-0.57,2.81-1.58,3.83c-1.01,1.02-2.38,1.58-3.81,1.58s-2.8-0.57-3.81-1.58
				c-1.01-1.01-1.58-2.39-1.58-3.83v-9.12c-3.57-0.59-6.99-1.88-10.06-3.81c-3.07-1.93-5.72-4.45-7.81-7.42
				c-0.76-0.97-1.18-2.16-1.21-3.39c0-0.7,0.14-1.39,0.41-2.04c0.27-0.64,0.68-1.22,1.18-1.71c0.5-0.48,1.1-0.86,1.75-1.1
				c0.65-0.25,1.35-0.35,2.05-0.32c0.69,0,1.37,0.15,2,0.44c0.63,0.29,1.18,0.72,1.62,1.26c2.58,3.37,6.07,5.93,10.06,7.35v-20.51
				c-10.71-4.2-16.1-10.5-16.1-18.65c0.16-4.37,1.87-8.53,4.82-11.74c2.95-3.21,6.95-5.26,11.28-5.78v-8.88
				c0-1.43,0.57-2.81,1.58-3.82c1.01-1.01,2.38-1.59,3.81-1.59s2.8,0.57,3.81,1.59c1.01,1.01,1.58,2.39,1.58,3.82v8.8
				c3,0.47,5.87,1.54,8.44,3.15c2.57,1.61,4.8,3.72,6.53,6.21c0.77,0.91,1.22,2.04,1.29,3.23c0.02,0.69-0.1,1.38-0.34,2.03
				c-0.25,0.65-0.63,1.24-1.11,1.73c-0.48,0.5-1.06,0.89-1.69,1.16c-0.64,0.27-1.32,0.41-2.01,0.41c-0.72,0-1.43-0.16-2.09-0.47
				c-0.65-0.31-1.23-0.75-1.7-1.3c-1.92-2.41-4.45-4.25-7.33-5.33v18.17l2.01,0.81c10.22,4.04,16.58,9.85,16.58,19.06
				c-0.12,4.93-2.11,9.63-5.56,13.14C859.21,649.09,854.55,651.15,849.64,651.33z M838.85,607.89v-13.16
				c-1.3,0.47-2.42,1.34-3.2,2.49c-0.78,1.14-1.18,2.51-1.15,3.89c-0.01,1.43,0.39,2.84,1.16,4.04
				C836.44,606.36,837.54,607.31,838.85,607.89z M856.48,632.68c0-3.88-2.66-6.22-6.84-8.08v16.15c1.92-0.29,3.67-1.27,4.93-2.75
				C855.82,636.52,856.5,634.63,856.48,632.68z"/>
		</g>
	</g>
	<path class="st1" d="M522,601.25c44.46,0,80.5-36.15,80.5-80.75c0-44.6-36.04-80.75-80.5-80.75c-44.46,0-80.5,36.15-80.5,80.75
		C441.5,565.1,477.54,601.25,522,601.25z"/>
	<g>
		<g>
			<path class="st2" d="M527.64,554.33v8.88c0,1.43-0.57,2.81-1.58,3.83c-1.01,1.02-2.38,1.58-3.81,1.58s-2.8-0.57-3.81-1.58
				c-1.01-1.01-1.58-2.39-1.58-3.83v-9.12c-3.57-0.59-6.99-1.88-10.06-3.81c-3.07-1.93-5.72-4.45-7.81-7.42
				c-0.76-0.97-1.18-2.16-1.21-3.39c0-0.7,0.14-1.39,0.41-2.04c0.27-0.64,0.68-1.22,1.18-1.71c0.5-0.48,1.1-0.86,1.75-1.1
				c0.65-0.25,1.35-0.35,2.05-0.32c0.69,0,1.37,0.15,2,0.44c0.63,0.29,1.18,0.72,1.62,1.26c2.58,3.37,6.07,5.93,10.06,7.35v-20.51
				c-10.71-4.2-16.1-10.5-16.1-18.65c0.16-4.37,1.87-8.53,4.82-11.74c2.95-3.21,6.95-5.26,11.28-5.78v-8.88
				c0-1.43,0.57-2.81,1.58-3.82c1.01-1.01,2.38-1.59,3.81-1.59s2.8,0.57,3.81,1.59c1.01,1.01,1.58,2.39,1.58,3.82v8.8
				c3,0.47,5.87,1.54,8.44,3.15c2.57,1.61,4.8,3.72,6.53,6.21c0.77,0.91,1.22,2.04,1.29,3.23c0.02,0.69-0.1,1.38-0.34,2.03
				c-0.25,0.65-0.63,1.24-1.11,1.73c-0.48,0.5-1.06,0.89-1.69,1.16c-0.64,0.27-1.32,0.41-2.01,0.41c-0.72,0-1.43-0.16-2.09-0.47
				c-0.65-0.31-1.23-0.75-1.7-1.3c-1.92-2.41-4.45-4.25-7.33-5.33v18.17l2.01,0.81c10.22,4.04,16.58,9.85,16.58,19.06
				c-0.12,4.93-2.11,9.63-5.56,13.14C537.21,552.09,532.55,554.15,527.64,554.33z M516.85,510.89v-13.16
				c-1.3,0.47-2.42,1.34-3.2,2.49c-0.78,1.14-1.18,2.51-1.15,3.89c-0.01,1.43,0.39,2.84,1.16,4.04
				C514.44,509.36,515.54,510.31,516.85,510.89z M534.48,535.68c0-3.88-2.66-6.22-6.84-8.08v16.15c1.92-0.29,3.67-1.27,4.93-2.75
				C533.82,539.52,534.5,537.63,534.48,535.68z"/>
		</g>
	</g>
	<path class="st1" d="M190,698.25c44.46,0,80.5-36.15,80.5-80.75c0-44.6-36.04-80.75-80.5-80.75c-44.46,0-80.5,36.15-80.5,80.75
		C109.5,662.1,145.54,698.25,190,698.25z"/>
	<g>
		<g>
			<path class="st2" d="M195.64,651.33v8.88c0,1.43-0.57,2.81-1.58,3.83c-1.01,1.02-2.38,1.58-3.81,1.58c-1.43,0-2.8-0.57-3.81-1.58
				c-1.01-1.01-1.58-2.39-1.58-3.83v-9.12c-3.57-0.59-6.99-1.88-10.06-3.81c-3.07-1.93-5.72-4.45-7.81-7.42
				c-0.76-0.97-1.18-2.16-1.21-3.39c0-0.7,0.14-1.39,0.41-2.04c0.27-0.64,0.68-1.22,1.18-1.71c0.5-0.48,1.1-0.86,1.75-1.1
				c0.65-0.25,1.35-0.35,2.05-0.32c0.69,0,1.37,0.15,2,0.44c0.63,0.29,1.18,0.72,1.62,1.26c2.58,3.37,6.07,5.93,10.06,7.35v-20.51
				c-10.71-4.2-16.1-10.5-16.1-18.65c0.16-4.37,1.87-8.53,4.82-11.74c2.95-3.21,6.95-5.26,11.28-5.78v-8.88
				c0-1.43,0.57-2.81,1.58-3.82c1.01-1.01,2.38-1.59,3.81-1.59c1.43,0,2.8,0.57,3.81,1.59c1.01,1.01,1.58,2.39,1.58,3.82v8.8
				c3,0.47,5.87,1.54,8.44,3.15c2.57,1.61,4.8,3.72,6.53,6.21c0.77,0.91,1.22,2.04,1.29,3.23c0.02,0.69-0.1,1.38-0.34,2.03
				c-0.25,0.65-0.63,1.24-1.11,1.73c-0.48,0.5-1.06,0.89-1.69,1.16c-0.64,0.27-1.32,0.41-2.01,0.41c-0.72,0-1.43-0.16-2.09-0.47
				c-0.65-0.31-1.23-0.75-1.7-1.3c-1.92-2.41-4.45-4.25-7.33-5.33v18.17l2.01,0.81c10.22,4.04,16.58,9.85,16.58,19.06
				c-0.12,4.93-2.11,9.63-5.56,13.14S200.55,651.15,195.64,651.33z M184.85,607.89v-13.16c-1.3,0.47-2.42,1.34-3.2,2.49
				c-0.78,1.14-1.18,2.51-1.15,3.89c-0.01,1.43,0.39,2.84,1.16,4.04C182.44,606.36,183.54,607.31,184.85,607.89z M202.48,632.68
				c0-3.88-2.66-6.22-6.84-8.08v16.15c1.92-0.29,3.67-1.27,4.93-2.75C201.82,636.52,202.5,634.63,202.48,632.68z"/>
		</g>
	</g>
	<g id="Page-1_1_">
		<g id="Dribbble-Light-Preview_1_" transform="translate(-260.000000, -6842.000000)">
			<g id="icons_1_" transform="translate(56.000000, 160.000000)">
				
					<linearGradient id="arrow_x5F_right_x5F_up-_x5B__x23_297_x5D__2_" gradientUnits="userSpaceOnUse" x1="923.673" y1="7264.3872" x2="725.1771" y2="7462.8833">
					<stop  offset="0" style="stop-color:#FFFFFF"/>
					<stop  offset="0.8881" style="stop-color:#6F42C1"/>
				</linearGradient>
				<path id="arrow_x5F_right_x5F_up-_x5B__x23_297_x5D__1_" class="st3" d="M831.46,7375.5l72.64-75.87
					c4.28-4.44,11.08-1.3,11.08,4.98v32.6c0,7.79,6.61,21.16,14.12,21.16h-0.26c7.52,0,13.34-13.37,13.34-21.16v-70.51
					c0-15.59-11.15-21.16-26.16-21.16h-67.99c-7.51,0-14.63,2.79-14.63,10.58v1.76c0,7.78,7.13,15.87,14.63,15.87h33.25
					c6.06,0,9.1,4.07,4.81,8.52l-64.43,65.05c-5.3,5.51-13.91,4.63-19.23-0.87l-5.6-6.27c-10.62-11.01-27.84-11.23-38.47-0.21
					l-85.63,86.12c-5.32,5.5-2.52,14.37-2.52,19.89v-0.03c13.6,5.51,16.43,5.5,21.74-0.01l74.76-76.25c5.32-5.51,14.55-5.51,19.87,0
					l5.87,5.78C803.27,7386.51,820.83,7386.52,831.46,7375.5"/>
			</g>
		</g>
	</g>
</g>
</svg>
