<?xml version="1.0" encoding="utf-8"?>
<!-- Generator: Adobe Illustrator 25.0.0, SVG Export Plug-In . SVG Version: 6.00 Build 0)  -->
<svg version="1.1" id="Layer_1" xmlns="http://www.w3.org/2000/svg" xmlns:xlink="http://www.w3.org/1999/xlink" x="0px" y="0px"
	 viewBox="0 0 722 456" style="enable-background:new 0 0 722 456;" xml:space="preserve">
<style type="text/css">
	.st0{fill:#1534CB;}
	.st1{fill:#5B71DB;}
	.st2{fill:#F7F8FA;}
	.st3{fill:#1128CD;}
	.st4{fill:#1326C6;}
	.st5{fill:#1427C6;}
	.st6{fill:#5C71DB;}
	.st7{fill:#FDFDFD;}
	.st8{fill:#FCFDFC;}
	.st9{fill:#FCFDFD;}
	.st10{fill:#FAFBFB;}
	.st11{fill:#626263;}
	.st12{fill:#F9FAFB;}
	.st13{fill:#F3F4FA;}
	.st14{fill:#949495;}
	.st15{fill:#F6F7FA;}
	.st16{fill:#F8F9FA;}
	.st17{fill:#F5F7F9;}
	.st18{fill:#F1F2F8;}
	.st19{fill:#F2F3F9;}
	.st20{fill:#F2F4F9;}
	.st21{fill:#F5F6F9;}
	.st22{fill:#8C8C8D;}
	.st23{fill:#3D445C;}
	.st24{fill:#F4F7F9;}
	.st25{fill:#8B8B8C;}
	.st26{fill:#F6F7FB;}
	.st27{fill:#63604F;}
	.st28{fill:#B6C1ED;}
	.st29{fill:#1F39CC;}
	.st30{fill:#203ACC;}
	.st31{fill:#152FC6;}
	.st32{fill:#0A1FC7;}
	.st33{fill:#0D24C7;}
	.st34{fill:#0517C0;}
	.st35{fill:#DADFF4;}
	.st36{fill:#0B26C2;}
	.st37{fill:#0920C4;}
	.st38{fill:#0922C5;}
	.st39{fill:#090EC4;}
	.st40{fill:#061FC4;}
	.st41{fill:#1325C5;}
	.st42{fill:#0F21C6;}
	.st43{fill:#071AC4;}
	.st44{fill:#0819BF;}
	.st45{fill:#0918C5;}
	.st46{fill:#4C5659;}
	.st47{fill:#090FC2;}
	.st48{fill:#0A15C9;}
	.st49{fill:#384271;}
	.st50{fill:#081CC6;}
	.st51{fill:#0521BD;}
	.st52{fill:#0912C5;}
	.st53{fill:#1E37CB;}
	.st54{fill:#0921CA;}
	.st55{fill:#0919BD;}
	.st56{fill:#0B08BE;}
	.st57{fill:#080FB7;}
	.st58{fill:#061BC0;}
	.st59{fill:#071EBB;}
	.st60{fill:#0314BC;}
	.st61{fill:#99ADF1;}
	.st62{fill:#060BBD;}
	.st63{fill:#1C38CB;}
	.st64{fill:#AAAAAA;}
	.st65{fill:#9D9D9E;}
	.st66{fill:#8E8E90;}
	.st67{fill:#9D9D9F;}
	.st68{fill:#979798;}
	.st69{fill:#8C8D8E;}
	.st70{fill:#88898A;}
	.st71{fill:#979799;}
	.st72{fill:#A2A1A1;}
	.st73{fill:#8F8F91;}
	.st74{fill:#848486;}
	.st75{fill:#535354;}
	.st76{fill:#969698;}
	.st77{fill:#5B5B5D;}
	.st78{fill:#6B6B6D;}
	.st79{fill:#555657;}
	.st80{fill:#A5A3A7;}
	.st81{fill:#ADAAAF;}
	.st82{fill:#A2A0A2;}
	.st83{fill:#9A9A9C;}
	.st84{fill:#1533CB;}
	.st85{fill:#0618C0;}
	.st86{fill:#1634CB;}
	.st87{fill:#0A0AC4;}
	.st88{fill:#233CCD;}
	.st89{fill:#1939CC;}
	.st90{fill:#2B41CC;}
	.st91{fill:#868687;}
	.st92{fill:#969598;}
	.st93{fill:#6F6F70;}
	.st94{fill:#78787A;}
	.st95{fill:#787879;}
	.st96{fill:#A5A5A7;}
	.st97{fill:#A2A2A4;}
	.st98{fill:#666668;}
	.st99{fill:#7E7E80;}
	.st100{fill:#808082;}
	.st101{fill:#7D7E7F;}
	.st102{fill:#767678;}
</style>
<g>
	<path class="st0" d="M15.24,25.08c-0.14-3.32,1.95-5.9,2.94-8.84c1.52-2.51,3.22-4.85,6.06-6.03l-0.02,0.02
		c1.54-2.77,4.4-2.6,6.95-3.11l-0.04,0.02c3.02-1.53,6.21-0.51,9.3-0.52c28.42-0.07,56.85-0.03,85.26-0.05
		c5.24,6.17,13.12,6.02,20,8.22c11.27,3.6,22.48,7.23,33.14,12.53c7.41,3.69,12.05,9.15,14.25,16.98
		c4.1,14.59,7.45,29.38,11.31,44.03c10.48,39.78,20.46,79.68,30.74,119.51c0.91,3.54,2.74,4.85,6.33,4.82
		c14.83-0.11,29.66-0.16,44.48,0.02c4.09,0.05,6.38-1.36,7.95-5.18c8.89-21.55,17.91-43.05,26.9-64.56
		c18.3-43.79,36.37-87.68,54.95-131.35c0.87-2.04,1.3-4.64,4.2-5.1c7.2,0.3,14.39-0.12,21.58,0.14c2.25,1.46,1.33,3.56,0.94,5.41
		c-9.72,45.42-19.39,90.85-29.04,136.29c-4.12,19.38-8.32,38.74-12.31,58.15c-1.17,5.67-0.82,6.05,4.93,6.06
		c12.99,0.03,25.98-0.1,38.97,0.07c4.27,0.06,6.24-1.55,7.13-5.75c4.51-21.34,8.94-42.69,13.51-64.02
		c7.05-32.88,14.02-65.78,21.04-98.67c2.15-10.09,4.44-20.16,6.45-30.28c0.52-2.64,0.49-5.78,3.55-7.28
		c21.25-0.04,42.5,0.01,63.73-0.02c0.97,0.1,2.3,0.11,1.29,1.6c-0.98,1.45-2.79,1.71-4.31,2.36c-12.23,5.24-23.43,11.88-31.92,22.49
		c-10.68,13.35-15.04,28.6-12.77,45.34c1.92,14.16,10.78,24.43,21.54,33.13c6.24,5.04,13.06,9.22,20.24,12.8
		c7.01,3.49,14.09,6.84,20.48,11.44c2.03,1.46,4.02,2.95,5.81,4.71c9.23,9.09,8.31,20.82-2.68,27.9c-9.75,6.28-20.81,7.48-32.19,6.7
		c-14.78-1.02-28.97-4.3-42.32-10.84c-3.19-1.56-4.56-0.47-5.22,2.69c-2.37,11.24-4.81,22.47-7.19,33.72
		c-0.87,4.12,0.62,6.16,4.48,7.39c11.96,3.82,24.22,6.11,36.67,7.45c17.53,1.89,34.88,0.89,51.97-3.69
		c15.59-4.19,29.46-11.27,40.69-23.19c15.93-16.92,20.63-47.02,9.85-66.64c-6.02-10.96-15.48-18.65-26.09-24.9
		c-8.18-4.82-16.55-9.29-25-13.64c-4.61-2.37-8.98-5.12-12.65-8.84c-8.16-8.29-6.99-18.66,3-24.79c9.52-5.84,20.12-6.71,30.9-5.7
		c11.14,1.04,22.14,2.97,32.47,7.57c3.26,1.45,4.52,0.09,5.18-2.97c2.42-11.24,4.7-22.5,7.16-33.73c0.54-2.45-0.38-3.79-2.63-4.55
		c-1.41-0.48-2.94-0.86-3.92-2.08c-1.04-1.31-0.12-1.65,1.06-1.74c26.44,0.02,52.86-0.02,79.29,0.04c2.34,0.01,4.61-0.52,6.93-0.43
		c2.48,0.84,1.59,2.36,0.29,3.21c-10.09,6.59-12.44,17.9-16.6,27.85c-23.7,56.69-47.18,113.47-70.95,170.13
		c-2.12,5.06-2.06,5.23,3.42,5.23c13.99,0.02,27.99-0.17,41.98,0.1c4.87,0.1,7.25-1.71,8.57-6.29c1.89-6.55,4.68-12.82,6.69-19.35
		c1.13-3.68,3.46-5.43,7.35-5.43c11.99,0,23.99-0.01,35.98,0.01c1.68,0,3.34,0.12,4.7,1.3c-0.01,0.35-0.03,0.69-0.04,1.04
		c-0.64,0.65-0.63,1.44-0.63,2.3c0.18,78.58,0.04,157.16,0.11,235.73c0,1.62-0.49,3.34,0.53,4.86c0,0.33,0,0.65,0.01,0.98
		c-0.85,0.96-0.7,1.96-0.16,2.99c-1.69,9.08-8.16,15.55-17.04,17.23c-4.14,0.79-8.29,0.61-12.45,0.61
		c-213.85,0.01-427.69,0-641.54,0.04c-9.54,0-17.85-2.14-23.06-10.97c-1.44-2.44-2.69-4.97-2.56-7.93c0.77-1.76,0.39-3.62,0.39-5.42
		c0.02-131.3,0.02-262.6,0-393.9C15.6,28.7,15.94,26.85,15.24,25.08z"/>
	<path class="st1" d="M712.04,182.94c-13.33,0.02-26.66,0.22-39.98-0.06c-4.15-0.09-5.84,1.41-7.01,5.15
		c-2.37,7.61-5.32,15.05-7.8,22.63c-0.82,2.49-2.07,3.42-4.65,3.4c-16.66-0.08-33.32-0.1-49.98,0.01c-3.29,0.02-3.04-1.08-2.03-3.48
		c6.66-15.77,13.21-31.58,19.78-47.39c10.9-26.24,21.76-52.51,32.69-78.74c8.94-21.48,17.97-42.93,26.94-64.39
		c2.42-5.79,7.01-9.55,11.97-12.98c2.93-1.54,5.43-0.18,7.93,1.18l-0.08-0.05c1.17,0.41,2.68,0.27,3.13,1.88
		c7.15,5.49,9.86,12.72,9.44,21.69c-0.51,10.72-0.3,21.48-0.41,32.23c-3.09,6.42-4.98,13.3-7.47,19.95
		c-6.18,16.46-12.19,32.99-18.11,49.55c-1.69,4.73-1.45,5.06,3.57,5.11c5.48,0.06,10.95-0.02,16.43,0.03
		c1.97,0.02,4.03-0.22,5.64,1.36C712.46,154.33,712.43,168.63,712.04,182.94z"/>
	<path class="st0" d="M712.02,140.03c-8.3-0.02-16.6-0.1-24.89-0.02c-3.12,0.03-4.64-0.22-3.19-4.13
		c8.54-22.96,16.81-46.03,25.29-69.01c0.4-1.09-0.23-3.93,2.73-2.84c-0.01,1-0.01,2-0.02,3.01c-0.73,1.04-0.48,2.24-0.48,3.38
		c-0.01,21.74-0.01,43.48,0,65.22c0,1.14-0.27,2.34,0.52,3.36C712,139.35,712.01,139.69,712.02,140.03z"/>
	<path class="st2" d="M699.88,8.28c-2.67-0.18-5.13-1.81-7.93-1.18c-29.64,0-59.29,0-88.93,0.01c-1.89,1.83-4.31,1.55-6.6,1.55
		c-22.62,0.05-45.24,0.05-67.85,0c-2.29-0.01-4.71,0.28-6.61-1.53c-21.97-0.01-43.95-0.02-65.92-0.03
		c-1.77,1.56-3.96,1.55-6.12,1.56c-13.93,0.05-27.86,0.05-41.79,0c-2.16-0.01-4.34,0-6.13-1.53c-7.65-0.02-15.31-0.04-22.96-0.06
		c-1.73,1.11-3.62,1.59-5.67,1.58c-17.1-0.04-34.2,0.2-51.31-0.12c-29.16,0.24-58.31,0.24-87.47,0c-1.17-0.01-2.33-0.04-3.5,0.05
		c-32.63,0.19-65.25,0.07-97.88,0.07c-2.16,0-4.36-0.01-6.12-1.62C95.1,7.07,63.11,7.1,31.13,7.13c1.17-1.41,2.83-1.76,4.46-1.69
		c31.27,1.4,62.56,0.47,93.84,0.54C206.19,6.15,282.97,6.06,359.74,6c6.35,0,12.89-1.17,18.97-0.96c5.92,0.21,11.97,0.45,17.98,0.63
		c27.8,0.83,55.6,0.23,83.4,0.33c36.8,0.13,73.61,0.03,110.41,0.03c29.28,0,58.57-0.03,87.85,0.03c4.67,0.01,9.29,0.09,13.62-2.01
		c0,0,0,0,0,0C693.79,6.99,698.3,4.88,699.88,8.28z"/>
	<path class="st3" d="M15.24,25.08c1.45,1.56,0.83,3.49,0.83,5.25c0.03,131.42,0.03,262.84,0,394.27c0,1.76,0.64,3.7-0.87,5.23
		c-0.13-2.15-0.37-4.3-0.37-6.46c-0.02-130.28-0.02-260.57,0-390.85C14.84,30.05,15.1,27.56,15.24,25.08z"/>
	<path class="st4" d="M712,426.87c-1.86-1.8-1-4.1-1-6.16c-0.05-76.28-0.03-152.57-0.08-228.85c0-2.24,0.51-4.51-0.7-6.81
		c-0.84-1.59,1.13-0.72,1.78-1.08c0.08,0.99,0.24,1.98,0.24,2.97c0.01,78.82,0.01,157.64,0,236.46
		C712.23,424.56,712.08,425.72,712,426.87z"/>
	<path class="st5" d="M711.98,139c-1.42-1.12-1-2.71-1-4.15c-0.02-21.21-0.02-42.43,0-63.64c0-1.44-0.42-3.03,0.96-4.17
		C712.47,91.03,712.39,115.01,711.98,139z"/>
	<path class="st2" d="M31.17,7.11c-2.32,1.04-4.64,2.07-6.95,3.11C23.53,4.89,23.53,4.89,31.17,7.11z"/>
	<path class="st2" d="M24.24,10.21c-2.02,2.01-4.04,4.02-6.06,6.03c-0.54-3.01,3.44-4.18,2.92-7.19l0,0
		C22.15,9.44,23.19,9.82,24.24,10.21z"/>
	<path class="st2" d="M702.94,10.11c-1.04-0.63-2.09-1.26-3.13-1.88c1.22,0.05,2.33-1.42,3.48-0.59
		C704.27,8.36,703.12,9.28,702.94,10.11z"/>
	<path class="st2" d="M514.66,4.48c-0.91,0.28-1.33,0.53-1.73,0.5c-0.33-0.02-0.64-0.36-0.96-0.55c0.28-0.11,0.56-0.32,0.84-0.32
		C513.26,4.13,513.7,4.28,514.66,4.48z"/>
	<path class="st2" d="M21.1,9.06c-0.72-0.46-1.07-1.07-0.78-1.92c0.04-0.11,0.25-0.17,0.38-0.25C20.83,7.61,20.97,8.33,21.1,9.06
		C21.1,9.06,21.1,9.06,21.1,9.06z"/>
	<path class="st4" d="M711.85,430.85c-1.17-1.06-1.15-2.06,0.16-2.99C711.96,428.85,711.9,429.85,711.85,430.85z"/>
	<path class="st2" d="M697.14,4.31c0.03,0.12,0.13,0.33,0.09,0.36c-0.11,0.09-0.27,0.1-0.41,0.14c-0.03-0.12-0.13-0.33-0.09-0.36
		C696.83,4.37,697,4.36,697.14,4.31z"/>
	<path class="st6" d="M127.09,7.04c34.66,0.01,69.31,0.02,103.97,0.02c8.83,3.72,13.03,10.88,14.83,19.85
		c2.98,14.84,5.65,29.75,8.45,44.63c4.33,23.04,8.67,46.09,13.35,69.25c3.27-7.04,6.15-14.2,8.93-21.4
		c13.78-35.7,28.08-71.19,41.98-106.85c0.79-2.03,1.58-4.04,3.41-5.41c19.01-0.02,38.02-0.04,57.03-0.06
		c-22.52,53.98-45.04,107.97-67.57,161.95c-5.82,13.96-11.73,27.88-17.47,41.88c-0.99,2.4-2.35,3.2-4.87,3.19
		c-16.66-0.09-33.32-0.15-49.98,0.04c-3.35,0.04-4.26-1.6-4.93-4.24c-7.34-28.8-14.71-57.58-22.07-86.37
		c-6.45-25.25-12.98-50.48-19.31-75.76c-2.37-9.47-7.29-16.21-16.59-20.31c-14.37-6.34-29.1-11.3-44.41-14.58
		C128.52,12.14,126.23,10.97,127.09,7.04z"/>
	<path class="st6" d="M521.95,7.12c24.21-0.08,48.42-0.17,72.63-0.23c2.81-0.01,5.62,0.14,8.43,0.21c2.46,2.51,7.79,0.93,8.62,4.71
		c0.65,2.96-1.02,6.44-1.73,9.68c-2.19,10.05-4.55,20.06-6.54,30.15c-0.62,3.15-1.59,3.18-4.21,2.05
		c-13.59-5.89-27.88-8.78-42.65-8.52c-7.98,0.14-15.84,1.49-22.69,6.32c-8.15,5.75-9.15,14.57-2.19,21.66
		c7.64,7.78,17.89,11.38,27.09,16.64c9.24,5.28,18.48,10.4,26.42,17.71c15.99,14.72,19.9,32.89,15.36,53.25
		c-5.68,25.41-22.74,40.54-46.33,49.31c-14.82,5.51-30.27,7.92-45.94,7.62c-18.29-0.35-36.38-2.86-53.87-8.75
		c-3.99-1.34-5.87-2.81-4.61-7.8c3.02-11.88,5.31-23.95,7.6-35.99c0.82-4.33,2.41-4.38,5.93-2.61
		c15.72,7.91,32.54,11.45,50.07,11.26c8.52-0.09,16.86-1.7,24.18-6.57c10.14-6.75,11.19-17.18,2.59-25.69
		c-4.54-4.49-9.94-7.8-15.57-10.68c-12.44-6.36-24.77-12.71-35.5-22c-25.57-22.1-21.72-55.84-4.05-77.37
		C494.83,19.51,508.04,12.83,521.95,7.12z"/>
	<path class="st6" d="M401.99,7.12c18.01-0.01,36.03-0.02,54.04-0.03c-6.46,30.47-12.9,60.94-19.37,91.41
		c-7.88,37.1-15.83,74.19-23.62,111.32c-0.69,3.29-2.12,4.3-5.37,4.27c-14.98-0.14-29.97-0.29-44.94,0.06
		c-5.03,0.12-4.31-2.29-3.66-5.36c4.32-20.25,8.64-40.5,12.95-60.75c7-32.88,13.98-65.77,20.97-98.66
		C395.99,35.3,398.99,21.21,401.99,7.12z"/>
	<path class="st7" d="M155.17,405.9c4.04-9.47,8.05-18.96,12.12-28.42c1.88-4.37,12.65-7.65,16.34-4.9
		c0.78,0.59,1.09,2.01,1.32,3.11c2.89,13.83,5.63,27.7,8.65,41.5c0.69,3.16,0.19,4.23-3.14,3.95c-4.01-0.34-9.19,1.63-9.15-5.43
		c0-0.16-0.02-0.4-0.12-0.47c-3.85-2.9-8.24-0.65-12.35-1.25c-1.71-0.25-3.59-0.54-4.46,1.96c-0.61,1.77-0.49,4.6-2.74,4.91
		c-3.59,0.49-7.3,0.31-10.95,0.12c-1.5-0.08-0.9-1.38-0.57-2.3c0.68-1.87,1.35-3.74,2.02-5.61c0.45-0.67,0.33-1.58,0.93-2.2l0,0
		c0.59-0.53,0.42-1.39,0.86-1.98c0.28-0.16,0.37-0.4,0.25-0.71C154.56,407.45,154.46,406.5,155.17,405.9z"/>
	<path class="st7" d="M61.88,372.02c0.74,0.28,1.48,0.56,2.22,0.84l0.01,0.01c3.13,2.83,3.02,6.84,3.77,10.5
		c1.34,6.6,2.52,13.22,4,21.11c4.82-11.67,9.12-22.07,13.41-32.47c3.92-1.02,7.84-0.96,11.77-0.03c1.52,1.95-0.14,3.48-0.78,5.04
		c-5.45,13.21-11.13,26.33-16.41,39.61c-1.4,3.53-3.19,4.7-6.94,4.57c-8.53-0.28-8.54-0.07-10.63-8.15
		c-2.11-8.2-4.81-16.3-6.14-24.63c-1.31-8.17-5.58-12.25-13.35-13.67c-0.95-0.17-4.59,0.76-2.52-2.74
		C47.49,371.04,54.69,371,61.88,372.02z"/>
	<path class="st8" d="M148.39,412.83c-7.22,8.69-20.8,11.7-31.83,7.46c-3.38-1.3-1.92-3.31-1.59-5.2c1.09-6.14,1.12-6.03,6.99-4.54
		c3.38,0.86,6.84,1.45,10.35,0.47c2.02-0.57,3.89-1.42,4.3-3.65c0.39-2.11-1.16-3.38-2.76-4.34c-2.56-1.54-5.3-2.8-7.78-4.45
		c-9.21-6.13-9.17-17.4,0.21-23.38c7.34-4.68,15.31-4.74,23.54-2.53c2.63,0.71,2.33,2.14,1.99,4.09c-1.15,6.73-1.1,6.69-7.44,5.45
		c-2.62-0.52-5.32-0.64-7.93-0.02c-1.61,0.38-3.19,1.23-3.6,3.09c-0.45,1.99,0.9,3.1,2.35,3.99c2.84,1.73,5.76,3.31,8.6,5.03
		c2.96,1.79,4.79,4.53,6.17,7.62c1.03,1.96,0.84,3.95,0.13,5.96c-0.24,0.21-0.27,0.44-0.1,0.71c-0.7,0.97,0.01,2.38-1,3.25
		l0.04-0.07C148.75,412.09,148.54,412.44,148.39,412.83z"/>
	<path class="st9" d="M109.98,402.65c-1.09,4.68-2.44,9.33-3.18,14.06c-0.55,3.5-1.96,4.58-5.53,4.48
		c-8.32-0.23-8.31-0.01-6.52-8.45c2.52-11.87,5.18-23.72,7.46-35.64c0.73-3.8,2.18-5.65,6.15-4.87c0.32,0.06,0.66,0.01,1,0.01
		c6.76,0,6.76,0,5.44,6.57c-1.21,6.03-2.42,12.05-3.64,18.08C111.67,399,111.4,400.94,109.98,402.65z"/>
	<path class="st10" d="M153.09,105.8c0.23,10.84-2.14,20.09-6.63,28.84c-1.16,2.27-2.62,4.26-5.38,2.88
		c-2.83-1.41-1.92-3.76-0.79-6.01c8.32-16.46,8.26-32.94-0.07-49.36c-1.22-2.39-1.67-4.62,1.06-5.92c2.52-1.2,3.86,0.66,5.04,2.71
		C150.51,86.21,153.08,96.56,153.09,105.8z"/>
	<path class="st11" d="M170.48,219.73c-1.66,2.05-3.99,2.11-6.34,2.11c-23.21,0-46.42,0.03-69.63-0.03c-1.78,0-3.56-0.61-5.33-0.94
		c-0.37-0.58-0.25-1.05,0.34-1.39c6.97-0.39,13.94,0.29,20.92,0.1c0.8-0.03,1.61-0.08,2.4-0.21c0.27-0.02,0.53-0.02,0.8-0.04
		c0.27,0.01,0.53,0.03,0.8,0.04c0.79,0.12,1.6,0.09,2.4,0.14c6.64,0.03,13.28,0.01,19.92,0.05c5.87,0.04,5.88-0.03,5.93-5.72
		c0.02-1.49,0-2.99,0-4.47c-0.02-0.72-0.03-1.44-0.21-2.13c-2.32-2.45-5.75-3.69-7.42-6.84c-5.89-2.35-10.07-1.6-14,2.53
		c-0.69,0.73-1.46,1.34-2.48,1.54c-0.77,0.03-1.38-0.23-1.74-0.95c0.13-2.16,2.14-3.47,2.45-5.55c1.05-2.34,0.26-4.7,0.08-7.04
		c0.02-0.41,0.06-0.82,0.1-1.22c-0.76-0.84-0.84,0.56-1.39,0.41c-6.38,0.55-12.76,0.12-19.13,0.36c-4.59-0.61-9.35,0.97-13.81-1.16
		c-0.66-0.87-0.65-1.74-0.02-2.62c4.52-2.16,9.33-0.7,13.99-1.07c2.11-0.17,4.25-0.02,6.36-0.07c4.09,0.01,8.2,0.12,12.28,0.04
		c2.43-0.02,1.84-1.55,1.45-2.99c-0.13-0.46-0.21-0.91-0.26-1.37c-0.1-1.77-0.26-3.54,0.85-5.11c0.48-0.35,0.96-0.36,1.45-0.02
		c1.18,1.23,1.29,2.89,1.83,4.38c1.1,4.47-0.51,9.18,1.17,13.59c2.02,1.03,4.2,0.39,6.29,0.6c3.21,0.32,4.61-1.07,4.19-4.28
		c-0.04-0.51-0.04-1.01-0.02-1.52c0.02-0.79,0-1.58-0.01-2.37c0.13-2.19-0.27-4.48,1.17-6.44c0.71-0.6,1.49-0.69,2.33-0.3
		c1.57,1.87,1.17,4.04,0.95,6.19c-0.26,1.21-0.38,2.42-0.07,3.64c0.31,1.61,0.27,3.24,0.32,4.87c0.18,5.46,1.04,6.51,6.53,8.07
		c2.14,0.12,4.28,0.04,6.42,0.04c6.25-0.45,12.58,1,18.75-0.88c1.19-2.55,0.44-5.25,0.57-7.87c0.07-1.76,0.02-3.55,1.32-4.98
		c0.66-0.22,1.16-0.03,1.5,0.58c0.17,6.96,0.07,13.93,0.05,20.89c-2.49,1.96-2.29-1.27-3.5-1.78c-1.8-1.79-4.09-1.14-6.18-1.14
		c-5.16,0.01-10.33-0.2-15.46,0.35c-3.66,3.4-1.84,7.35-1.13,11.17c5.51,1.29,11.04,0.72,16.56,0.29
		C166.75,219.03,168.7,218.36,170.48,219.73z"/>
	<path class="st12" d="M132.09,99.02c-0.2-3.92-1.89-7.35-3.61-10.74c-1.17-2.31-1.79-4.57,1.05-5.9c2.59-1.22,3.99,0.73,5.01,2.74
		c7.31,14.47,7.32,28.98,0.08,43.48c-1.07,2.15-2.53,4.36-5.36,2.76c-2.7-1.53-1.78-3.85-0.68-6.08c0.66-1.32,1.1-2.74,1.63-4.12
		c-0.01-0.19-0.03-0.39-0.05-0.59c-0.04-0.8,0.01-1.6,0.23-2.38c0.12-0.41,0.28-0.8,0.48-1.18c0.31-1.1,0.27-2.28,0.86-3.3
		C132.55,108.83,131.81,103.91,132.09,99.02z"/>
	<path class="st13" d="M572.88,262.71c-1.3,3.38-0.37,6.9-0.66,10.35c-0.12,1.39,0.45,3.11-1.98,3.17
		c-2.26,0.05-2.27-1.34-2.26-2.94c0.02-4.83,0.08-9.66-0.02-14.49c-0.05-2.28,2.17-3.68,2.82-2.54c2.2,3.85,3.67,0.68,5.44,0.02
		c1.6-0.6,3.77-1.3,4.8-0.23c3.43,3.56,6.2,1.33,9.63,0.04c4.07-1.53,7.02,0.69,8.34,4.84c1.05,4.22,0.22,8.52,0.49,12.77
		c0.12,1.84-0.61,2.74-2.55,2.71c-1.86-0.03-2.73-0.97-2.84-2.7c-0.21-3.3-0.02-6.6-0.13-9.89c-0.28-3.04-2.33-3.86-4.97-3.92
		c-2.7,0.51-3.24,2.46-3.23,4.81c0.02,2.99-0.03,5.98,0.02,8.96c0.03,1.54-0.33,2.51-2.15,2.57c-2.02,0.07-2.57-0.83-2.51-2.7
		c0.11-2.98,0.08-5.98,0.03-8.96c-0.1-5.43-2.25-6.52-7.09-3.63C573.95,261.74,573.71,262.42,572.88,262.71z"/>
	<path class="st14" d="M148.08,205.96c7.13-0.01,14.26-0.03,21.39-0.01c1.28,0,2.7-0.33,3.62,1.02c-3.07,2.4-6.77,0.51-10.65,1.66
		c3.21,1.99,5.17,5.37,9.63,3.52c1.57-0.66,1.81-0.07,1.12,3.93c-0.22,1.73-1.32,2.8-2.71,3.66c-6.81,1.54-13.74,1.06-20.64,1.09
		c-1.26,0.01-2.68,0.43-3.63-0.9c4.75-1.03,9.53-0.15,13.77-0.48c-3.03-0.02-6.58-0.08-10.13,0.02c-2.27,0.06-3.59-0.65-3.23-3.1
		C147.13,212.91,145.19,209.09,148.08,205.96z"/>
	<path class="st15" d="M622.09,271.92c-0.26,0.09-0.35,0.27-0.27,0.54c-0.03,0.65-0.41,1.08-0.9,1.44l0.01-0.02
		c-0.27,0.4-0.64,0.7-1,1.02c-3.38,2.19-6.9,2.6-10.6,0.86c-3.6,0.83-1.35,3.68-1.83,5.55c-0.34,1.33-0.75,2.13-2.19,2.08
		c-1.12-0.04-2.72,0.2-2.67-1.42c0.23-8.64-1.21-17.33,0.72-25.93c3.36,2.14,6.49,0.76,9.96-0.07c4.65-1.12,7.57,2.01,9.45,6.04
		c1.21,2.62,1,5.25,0.12,7.9l0.03-0.06C622.43,270.46,622.56,271.3,622.09,271.92z"/>
	<path class="st16" d="M119.22,111.18c1.78-5.75,0.11-11.04-2.24-16.21c-1.04-2.29-2.59-4.73,0.66-6.32
		c3.23-1.57,4.25,1.23,5.5,3.34c2.24,3.77,2.61,8.12,3.84,12.2c0.88,1.87,0.92,3.74-0.02,5.6c-1.22,4.11-1.71,8.44-3.94,12.23
		c-1.27,2.15-2.39,4.93-5.56,3.21c-2.7-1.47-1.77-3.84-0.66-6.07c1.26-2.51,2.56-5.03,2.41-7.98L119.22,111.18z"/>
	<path class="st15" d="M540.9,254.92c-1.71,0.74-2.72-0.8-4.04-1.28c-5.83-2.15-10.29-0.31-12.74,5.34c0.11,2.64,0.1,5.29,0.01,7.93
		c0.6,2.67,2.08,4.49,4.85,5.09c2.67-0.23,5.35-0.02,8.02-0.09c1.2-0.44,2.41-0.87,3.64-1.32c0.79,2.92-0.55,4.38-3.08,5.34
		c-5.75,2.19-12.75,0.54-16.29-3.97c-3.79-4.82-3.9-12.71-0.24-17.68c3.49-4.75,10.16-6.62,16.1-4.65c1.91,0.63,3.1,1.75,3.69,3.61
		C541.7,253.75,541.5,254.33,540.9,254.92z"/>
	<path class="st2" d="M442.81,249.1c3.69,6.45,4.54,14.01,8.27,21.75c2.55-7.82,4.78-14.67,7.01-21.51
		c1.24-1.47,2.54-1.26,3.86-0.13c-1.72,8.82-5.46,16.99-8.31,25.45c-0.82,2.43-5.58,2.41-6.35-0.04c-2.67-8.5-6.72-16.56-8.22-25.43
		C440.3,248.07,441.54,248.2,442.81,249.1z"/>
	<path class="st17" d="M563.84,266.68c-0.93,2.98-1.47,6.15-4.34,8.11c-3.98,2.71-8.08,2.88-12.1,0.31
		c-3.8-2.43-5.46-7.86-3.89-12.39c1.59-4.58,4.96-7.04,9.78-6.99c4.8,0.04,8.11,2.52,9.67,7.13c0.37,1.09,0.6,2.23,0.89,3.34
		C563.84,266.35,563.84,266.52,563.84,266.68z"/>
	<path class="st18" d="M495.94,259.82c-0.6,0.12-1.2,0.23-1.81,0.35c-1.79-0.01-1.77-0.97-1.19-2.23c0.74-0.63,1.49-1.25,2.23-1.88
		c0.17-0.48,0.44-0.55,0.81-0.2c4.56-0.22,9.26-0.82,11.85,4.33c1.09,5.24,0.99,10.47,0.03,15.71c-3.44,0.93-6.9-0.78-10.57,0.75
		c-2.56,1.07-5.49-0.94-6.08-4.3c-0.55-3.14,0.58-5.58,3.79-6.58c1.88-0.59,3.86-0.83,5.77-1.33c2.88-0.76,3.55-2.2,1.21-4.42
		C499.97,260.12,497.96,259.87,495.94,259.82z"/>
	<path class="st19" d="M644.01,260.04c-0.93-0.23-1.97,1.24-2.65,0.19c-0.67-1.04-0.23-2.44,0.88-3.05
		c3.4-1.87,7.06-2.01,10.63-0.66c2.96,1.11,3.43,3.73,3.35,6.6c-0.1,3.5-0.05,7-0.02,10.49c0.02,1.47-0.49,3.35-1.95,2.51
		c-2.85-1.62-4.92,0.35-7.34,0.63c-3.25,0.37-6.14-0.51-6.94-4.15c-0.74-3.37,0.5-5.94,4.03-6.93c1.92-0.54,3.89-0.87,5.84-1.33
		c2.06-0.49,3.01-1.48,1.47-3.5C648.99,259.47,646.46,260.13,644.01,260.04z"/>
	<path class="st2" d="M114.18,105.16c0.07,5.55-0.99,9.34-3.33,12.74c-1.16,1.69-2.75,2.68-4.68,1.57
		c-2.06-1.19-2.43-3.12-1.14-5.15c3.2-5.04,3.13-9.99-0.08-15c-1.17-1.83-0.73-3.55,1.07-4.76c2.01-1.36,3.53-0.25,4.71,1.29
		C113.13,99,114.11,102.67,114.18,105.16z"/>
	<path class="st20" d="M660.11,259.98c2.74-4.31,6.79-4.78,11.32-3.91c1.48,0.28,2.59,1.02,2.26,2.65c-0.41,2-1.76,0.66-2.73,0.55
		c-0.82-0.09-1.63-0.33-2.46-0.35c-1.65-0.04-3.65-0.27-4.17,1.75c-0.56,2.18,1.41,2.67,2.97,3.22c1.41,0.49,2.84,0.92,4.24,1.42
		c2.47,0.88,3.73,2.57,3.61,5.28c-0.11,2.56-1.15,4.42-3.57,5.45c-2.73,1.16-5.5,0.99-8.28,0.27c-1.66-0.43-3.61-1.07-2.99-3.16
		c0.75-2.51,2.46,0.53,3.68-0.22c1.98-0.83,3.98,0.3,5.96-0.08c2.9-3.17-0.27-3.77-2.11-4.44c-2.92-1.06-6.05-1.58-7.79-4.58
		C659.26,262.53,659.12,261.24,660.11,259.98z"/>
	<path class="st21" d="M488.91,271.79c-2.97,4.79-7.65,6.37-12.78,4.38c-1.35-0.52-2.63-1.13-2.23-2.77
		c0.63-2.58,2.01-0.22,3.02-0.27c0.81-0.04,1.62,0.37,2.45,0.44c2,0.17,4.51,0.53,5.08-1.9c0.65-2.74-2.18-2.87-3.91-3.51
		c-2.33-0.85-5.2-1.07-6.27-3.61c-1.17-2.78-0.81-5.59,2.02-7.51c2.65-1.79,9.08-1.84,10.39,0c0.33,0.47,0.45,1.29,0.31,1.86
		c-0.29,1.18-1.2,0.67-2,0.56c-2.5-0.36-6.08-2.08-6.93,1.22c-0.97,3.75,3.42,3.2,5.6,4.1c2.28,0.94,4.09,2.12,5.27,4.26
		C489.71,269.97,489.75,270.88,488.91,271.79z"/>
	<path class="st22" d="M85.11,159.54c0.3-0.38,0.61-0.76,0.91-1.14c0.39-1.07,1.16-1.81,2.08-2.42L88.08,156
		c0.89-0.69,1.96-0.6,2.99-0.66c1.84,0.61,2.06,1.99,1.74,3.63c-0.11,0.67-1.09,0.86-0.92,1.68c-0.03-0.69,0.53-0.88,1-1.16
		c4.62,0.87,7.68,4.35,11.28,6.87c1.21,0.85,2,2.42-0.12,3.52c-4.06,0.92-8.17,0.46-12.25,0.43c-5.57-0.04-6.47-1.05-6.7-6.62
		c-0.03-0.82-0.05-1.64-0.22-2.44C84.67,160.64,84.75,160.07,85.11,159.54z"/>
	<path class="st23" d="M174,210.97c0.01-7.33,0.01-14.65,0.02-21.98c-0.54-0.69-0.99-1.42-1.13-2.31c-0.25-2.01-0.14-4.03-0.2-6.04
		c0.01-3.46,0-6.93-0.01-10.39c-0.01-1.65,0.09-3.3-0.02-4.95c-0.35-5.46-3.26-8.54-8.71-8.8c-5.93-0.27-11.88-0.1-17.82-0.14
		c-0.88,0.02-1.76,0.02-2.64,0.04c-9.43,0.32-18.86-0.16-28.28-0.03c-0.6,0.01-1.2,0.01-1.8,0c-0.59,0.01-1.19,0.01-1.78,0.01
		c-4.69-0.24-9.45,0.79-14.07-0.82c-0.59-0.36-0.75-0.87-0.49-1.5c22.79-0.06,45.59-0.17,68.38-0.12c5.71,0.01,9.44,3.44,9.49,8.81
		c0.16,16.47,0.06,32.94,0.05,49.41c0,1.18-0.07,2.34-1.09,3.17C173.51,213.88,173.26,212.42,174,210.97z"/>
	<path class="st24" d="M629.97,255.9c1.04,1.02,1.52,3.8,3.71,0.89c0.86-1.14,2.63-1.47,4.03-0.7c0.45,0.25,0.5,1.44,0.51,2.21
		c0.04,2.35-1.78,1.71-3.14,1.9c-1.53,0.22-2.82,0.83-3.18,2.55c-0.93,3.6-0.28,7.26-0.41,10.89c-0.06,1.78-0.5,2.79-2.52,2.8
		c-2.04,0-2.51-1.03-2.49-2.81c0.05-5.15,0.04-10.3,0.01-15.45C626.48,255.53,627.71,254.96,629.97,255.9z"/>
	<path class="st25" d="M174,210.97c-0.03,1.46-0.06,2.91-0.09,4.37c-0.24,0.25-0.49,0.49-0.73,0.74c-0.08-0.98-0.17-1.97-0.25-3
		c-2.9,2.49-8.21,0.19-13.47-6.11c4.85,0,9.24,0,13.63,0C173.3,208.33,172.71,209.87,174,210.97z"/>
	<path class="st26" d="M469.07,276.04c-1.04-0.01-2.07-0.02-3.11-0.02c-0.94-5.72-0.21-11.47-0.41-17.21
		c-0.04-1.27,0.34-2.26,1.88-2.3c1.37-0.03,2.37,0.66,2.37,1.95C469.78,264.32,470.95,270.25,469.07,276.04z"/>
	<path class="st27" d="M85.11,159.54c0.06,0.53,0.12,1.06,0.19,1.58c0.55,3.19-0.04,6.51,1.13,9.63c0.05,0.61,0.07,1.21,0.07,1.82
		c-0.55,4.8,1.27,9.83-1.4,14.42c0.01,0.69,0.03,1.38,0.04,2.07c2.6,4.52,0.81,9.46,1.36,14.18c0.01,0.59,0.01,1.19,0,1.78
		c-0.16,3.2,0.59,6.49-0.87,9.58c-0.4,0.56-0.9,0.68-1.51,0.35c-0.04-17.08-0.08-34.15-0.13-51.23
		C83.97,162.21,83.84,160.69,85.11,159.54z"/>
	<path class="st28" d="M469.07,276.04c-0.01-5.32,0.01-10.65-0.05-15.97c-0.01-1.22,0.39-3.02-1.72-2.83
		c-1.63,0.15-1.25,1.73-1.27,2.8c-0.06,5.32-0.06,10.64-0.08,15.97c-2.16-6.14-0.84-12.46-0.7-18.67c0.05-2.37,2.94-1.08,4.56-1.37
		c1.28,6.66,0.83,13.34,0.22,20.02C469.72,276.01,469.39,276.03,469.07,276.04z"/>
	<path class="st29" d="M603.36,256.04c-0.88,8.08-0.16,16.19-0.41,24.28c-0.05,1.59,0.45,2.52,2.23,2.48
		c1.97-0.04,1.94-1.39,1.93-2.75c0-1.49-0.35-3.08,0.05-4.45c0.63-2.16,1.48-0.7,2.17,0.15c-2.25,1.57-1.1,3.95-1.36,5.97
		c-0.27,2.09-1.63,2.19-3.21,2.19c-1.47-0.01-2.74-0.36-2.73-2.12c0.04-8.27,0.13-16.55,0.26-24.82
		C602.31,256.66,602.99,256.35,603.36,256.04z"/>
	<path class="st30" d="M629.97,255.9c-2.15,0.1-3.24,0.9-3.13,3.36c0.21,4.65,0.09,9.32,0.07,13.99c-0.01,1.59-0.07,3.03,2.22,2.96
		c2.45-0.07,1.8-1.81,1.94-3.19c0.37-3.42-0.89-6.96,0.83-10.27c0.03,3.47,0.01,6.95,0.1,10.42c0.06,2.25-0.29,3.87-3.16,3.8
		c-2.6-0.06-2.9-1.53-2.88-3.57c0.05-5.13-0.01-10.26,0.02-15.39C625.99,254.89,627.29,254.06,629.97,255.9z"/>
	<path class="st31" d="M132.09,99.02c1.53,5.33,1.47,10.66,0,15.99c-0.94,0.87-0.24,2.2-0.88,3.15l0.06-0.09
		c-1.24,0.71-0.36,2.18-1.09,3.07c0,0,0.02,0.02,0.02,0.02c-1.03-0.68-2.02-1.98-1.47-2.83c3.54-5.4,1.94-11.42,2.39-17.18
		C131.19,100.42,131.76,99.73,132.09,99.02z"/>
	<path class="st29" d="M594.05,261.82c1.31,3.35,0.27,6.85,0.67,10.24c0.18,1.54-1.09,3.97,1.97,4.1c3.11,0.13,2.12-2.29,2.18-3.87
		c0.13-3.78,0.09-7.57,0.12-11.36c2.1,4.59,1.09,9.46,0.75,14.11c-0.25,3.31-3.75,1.4-5.79,1.85
		C593.27,271.87,593.12,266.84,594.05,261.82z"/>
	<path class="st32" d="M594.05,261.82c-0.03,5.03-0.07,10.05-0.1,15.08c-1.92-3.06-0.98-6.46-0.84-9.64c0.16-3.58-0.78-6-4.13-7.35
		C591.24,259.03,593.18,259.02,594.05,261.82z"/>
	<path class="st33" d="M61.88,372.02c-7.19,0-14.38-0.01-21.58-0.01c-0.38-0.45-0.3-1.05,0.22-1.06c7.05-0.05,14.1-0.03,21.16-0.02
		c0.12,0,0.33,0.16,0.33,0.25C62.01,371.46,61.93,371.74,61.88,372.02z"/>
	<path class="st34" d="M470.04,276c-0.07-6.67-0.15-13.35-0.22-20.02c2.06,6.97,1.71,13.96,0.21,20.96l-0.02-0.02
		C470.06,276.61,470.08,276.31,470.04,276z"/>
	<path class="st35" d="M467.1,249.11c1.75,0.1,2.79,0.86,2.9,2.38c0.1,1.39-0.91,2.09-2.16,2.24c-1.48,0.18-2.66-0.4-2.88-1.99
		C464.73,250.05,466.03,249.54,467.1,249.11z"/>
	<ellipse class="st36" cx="566.29" cy="267.14" rx="0.48" ry="12.59"/>
	<path class="st37" d="M572.88,262.71c0.01-0.84,0.4-1.42,1.17-1.75c0,4.97,0,9.94,0,14.91c-0.39,0-0.78,0-1.17,0
		C572.88,271.49,572.88,267.1,572.88,262.71z"/>
	<path class="st38" d="M657.28,274.88c0-4.9,0-9.79,0-14.69c0.12,0,0.25-0.01,0.37-0.01c0,4.9,0,9.79,0,14.69
		C657.53,274.87,657.41,274.88,657.28,274.88z"/>
	<path class="st39" d="M507.87,275.9c-0.01-5.24-0.02-10.48-0.03-15.71c1.95-0.51,1.17,1.1,1.11,1.68
		C508.46,266.54,510.28,271.39,507.87,275.9z"/>
	<path class="st40" d="M536.99,271.91c-2.66,1.26-5.33,1.34-8.02,0.09C531.63,270.33,534.3,270.43,536.99,271.91z"/>
	<path class="st41" d="M109.98,402.65c0.39-1.92,0.78-3.84,1.17-5.76c2,2.83,0.56,5.41-0.73,9.26
		C110.17,404.19,110.07,403.42,109.98,402.65z"/>
	<path class="st42" d="M97.06,371.98c-3.92,0.01-7.85,0.02-11.77,0.03C89.21,370.05,93.14,370.36,97.06,371.98z"/>
	<path class="st43" d="M644.01,260.04c2.57-0.96,5.14-1.96,7.3,0.8C648.86,260.64,646.28,261.78,644.01,260.04z"/>
	<path class="st44" d="M524.12,266.91c-1.01-2.64-1.01-5.29-0.01-7.93C525.52,261.62,525.51,264.26,524.12,266.91z"/>
	<path class="st45" d="M495.94,259.82c2.05-0.93,4.07-1.08,6.04,0.22C499.92,261.4,497.9,261.52,495.94,259.82z"/>
	<path class="st46" d="M97.07,154.09c0.01,0.27,0.03,0.55,0.04,0.82c-1.74,2.17-4.08,0.63-6.1,1c-0.97,0.03-1.95,0.07-2.92,0.1
		C90.59,153.1,93.94,154.12,97.07,154.09z"/>
	<path class="st47" d="M126.96,109.8c0.01-1.87,0.01-3.73,0.02-5.6c0.05-0.16,0.07-0.34,0.16-0.46c0.16-0.22,0.38-0.41,0.57-0.61
		c0.6,2.59,0.65,5.18-0.03,7.77c-0.12-0.06-0.3-0.09-0.35-0.19C127.18,110.42,127.08,110.1,126.96,109.8z"/>
	<path class="st48" d="M669.95,272.86c-1.97,1.29-3.96,0.77-5.96,0.08C665.95,271.41,667.94,271.47,669.95,272.86z"/>
	<path class="st49" d="M84.1,214.93c0.27,0.04,0.54,0.08,0.81,0.12c2.13,0.47,2.75,2.26,3.48,3.97c0.06,0.49-0.12,0.88-0.51,1.17
		C85.24,219.44,84.42,217.36,84.1,214.93z"/>
	<path class="st30" d="M622.89,269.91c-0.04-2.63-0.08-5.27-0.12-7.9C624.7,264.61,624.52,267.25,622.89,269.91z"/>
	<path class="st50" d="M119.22,111.19c-2.03-2.24-1.01-4.73-0.37-7.19c0.12,2.39,0.25,4.78,0.37,7.17
		C119.22,111.18,119.22,111.19,119.22,111.19z"/>
	<path class="st51" d="M452.9,277.76c-1.55,0-3.1,0-4.65,0c-0.01-0.15-0.02-0.3-0.04-0.44c1.53,0,3.05,0,4.58,0
		C452.83,277.47,452.86,277.61,452.9,277.76z"/>
	<path class="st52" d="M563.84,266.68c-0.19-0.17-0.19-0.33,0-0.5c0.18-0.76,0.37-1.52,0.68-2.8c0.66,2.23,0.66,3.87-0.01,6.1
		C564.2,268.2,564.02,267.44,563.84,266.68z"/>
	<path class="st53" d="M150.07,407.87c-0.04-1.99-0.09-3.97-0.13-5.96C151.72,403.87,151.54,405.86,150.07,407.87z"/>
	<path class="st54" d="M502.8,254.47c-2.28,0.49-3.53,0.64-4.93,0.04C499.3,253.6,500.62,253.86,502.8,254.47z"/>
	<path class="st55" d="M506.89,277.23c-0.83,0.92-1.78,0.75-2.76,0.45C504.84,276.13,506.01,277.71,506.89,277.23z"/>
	<path class="st56" d="M488.91,271.79c0.01-0.91,0.02-1.83,0.03-2.74c1.89-0.44,0.87,1.06,0.98,1.65
		C490,271.11,490.51,272.61,488.91,271.79z"/>
	<path class="st57" d="M442.81,249.1c-1.24,0.03-2.48,0.06-3.73,0.09C440.3,248.02,441.51,246.75,442.81,249.1z"/>
	<path class="st58" d="M660.11,259.98c-0.02,1.28-0.05,2.57-0.07,3.85C658.41,262.51,658.53,261.23,660.11,259.98z"/>
	<path class="st59" d="M470.03,276.94c-1.14,1.3-2.49,1.19-4.81,0.37c2.17-0.18,3.48-0.28,4.79-0.39
		C470,276.91,470.03,276.94,470.03,276.94z"/>
	<path class="st60" d="M540.9,254.92c-0.03-0.56-0.06-1.12-0.09-1.68c0.34-0.39,0.41-1.66,0.84-1.15
		C542.42,252.99,542.12,254.22,540.9,254.92z"/>
	<path class="st61" d="M492.95,257.93c0.21,0.84,0.19,1.81,1.19,2.23c-0.34,0.6-1.02,1.01-1.47,0.56
		C491.75,259.81,492.2,258.8,492.95,257.93z"/>
	<path class="st62" d="M461.96,249.21c-1.29,0.04-2.57,0.09-3.86,0.13C459.32,247.41,460.61,247.47,461.96,249.21z"/>
	<path class="st46" d="M88.1,155.98c-0.25,1.19-1.27,1.71-2.09,2.42C85.95,156.94,86.52,156.03,88.1,155.98z"/>
	<path class="st53" d="M148.97,411.84c0.33-1.08,0.67-2.17,1-3.25C150.05,409.8,150.34,411.07,148.97,411.84z"/>
	<path class="st30" d="M622.09,271.92c0.27-0.69,0.55-1.38,0.82-2.07C623,270.68,622.87,271.43,622.09,271.92z"/>
	<path class="st33" d="M64.1,372.87c0.12-0.43,0.24-0.85,0.36-1.28c0.92,0.71,0.01,0.92-0.35,1.29
		C64.12,372.87,64.1,372.87,64.1,372.87z"/>
	<path class="st54" d="M495.99,255.86l-0.37,0.24c0,0-0.44-0.04-0.44-0.04c-0.18-0.21-0.53-0.6-0.52-0.61
		C495.34,254.79,495.65,255.39,495.99,255.86z"/>
	<path class="st53" d="M155.17,405.9c-0.33,0.76-0.65,1.52-0.98,2.28C154.09,407.24,154.19,406.38,155.17,405.9z"/>
	<path class="st53" d="M153.94,408.89c-0.29,0.66-0.58,1.32-0.86,1.98C153.06,410.08,153.2,409.36,153.94,408.89z"/>
	<path class="st53" d="M153.08,410.88c-0.31,0.73-0.62,1.46-0.93,2.2C152.08,412.18,152.18,411.36,153.08,410.88z"/>
	<path class="st30" d="M620.92,273.89c0.3-0.48,0.6-0.96,0.9-1.44C621.53,272.94,621.23,273.42,620.92,273.89z"/>
	<path class="st30" d="M619.94,274.89c0.33-0.34,0.66-0.68,1-1.02C620.61,274.22,620.27,274.55,619.94,274.89z"/>
	<path class="st49" d="M89.05,220c0.04,0.29,0.08,0.58,0.13,0.87c-0.43-0.23-0.86-0.46-1.29-0.68c0.13-0.16,0.26-0.31,0.4-0.47
		C88.65,219.53,88.9,219.62,89.05,220z"/>
	<path class="st53" d="M148.39,412.83c0.21-0.35,0.41-0.71,0.62-1.06C148.8,412.12,148.6,412.47,148.39,412.83z"/>
	<path class="st0" d="M322,7.13c-10.3,26.27-20.6,52.54-30.91,78.81c-7.03,17.93-14.06,35.86-21.1,53.78
		c-0.69,1.76-1.21,3.66-3.18,5.31c-2.62-13.66-5.18-26.75-7.65-39.86c-3.88-20.67-7.7-41.35-11.53-62.02
		c-0.6-3.26-1.28-6.51-1.66-9.79c-1.27-10.89-5.64-19.98-14.91-26.31C261.37,7.08,291.69,7.11,322,7.13z"/>
	<path class="st63" d="M175.52,387.43c1.05,4.94,1.97,9.27,2.89,13.6c0.88,4.14-2.3,2.7-4.03,2.76c-5.62,0.19-5.62,0.1-3.68-5.17
		c1.26-3.42,2.54-6.84,3.82-10.25C174.56,388.23,174.74,388.15,175.52,387.43z"/>
	<path class="st64" d="M89.05,220c-0.23-0.15-0.49-0.25-0.76-0.29c-1.12-1.56-2.25-3.11-3.37-4.66c0.1-3.27,0.2-6.54,0.31-9.82
		c7.22-1.24,14.45-0.75,21.68-0.24c2.43,1.32,1.26,2.2-0.43,2.83c-2.17,0.82-4.59-0.08-7.15,0.94c2.73,3.46,6.88,4.35,9.93,7.05
		c1.39-2.82-0.61-6.14,2.33-8.07c0.55,0.04,0.94,0.31,1.19,0.8c0.23,0.48,0.38,0.97,0.47,1.49c0.09,0.53,0.13,1.05,0.15,1.59
		c-0.13,2.66,0.42,5.38-0.58,7.98c-0.17,0.54-0.5,0.94-1,1.22C104.23,220.48,96.59,221.54,89.05,220z"/>
	<path class="st65" d="M98.98,189.11c7.02,0.02,14.05,0.04,21.07,0.06c0.2,0.17,0.27,0.36,0.23,0.55c-0.05,0.2-0.1,0.3-0.16,0.3
		l0.02-0.01c-4.24,2.52-9.02,0.4-13.77,1.49c2.67,2.93,6.31,3.98,8.9,6.45c1.8,1.72,2.02-0.58,2.87-1.22
		c1.94-1.47,2.84-1.44,1.97,1.3c0.24,2.41-1.26,3.78-3,5c-1.07,1.43-2.56,2.31-4.29,2.17c-8.77-0.7-17.59,0.48-26.34-0.82
		c-1.41-1.44,0.01-1.87,0.92-2.28c1.47-0.67,3.09-0.48,4.65-0.53c5.4-0.25,10.73,0.61,16.08,1.14c-8.48-0.86-15.24-5.84-22.55-9.51
		c-0.36-2.7,0.56-3.89,3.52-3.8C92.4,189.53,95.72,189.94,98.98,189.11z"/>
	<path class="st66" d="M120.11,175.97c0,1.99,0,3.99-0.01,5.98c0.08,3.35-1.15,4.6-4.88,4.68c-5.14,0.11-9.32-1.71-13.41-4.23
		c-2.39-1.47-4.59-3.24-7.03-4.66c-1.6-0.94-3.34-2.2-2.74-4.24c0.64-2.16,2.93-1.72,4.69-1.84c3.78-0.26,7.62,0.45,11.35-0.66
		c2.98-0.45,5.97-0.75,8.79,0.59C118.67,172.45,120.51,173.43,120.11,175.97z"/>
	<path class="st67" d="M118.14,204.02c0.64-0.5,1.29-1,1.93-1.5c1.54-1.2,1.26-4.24,3.51-4.38c3.91-0.25,7.86,0.05,11.79,0.25
		c0.33,0.02,0.61,1.04,0.92,1.59c-2.54,1.1-5.16,0.11-7.73,0.19c-2.67,0.08-4.46,0.83-4.74,3.71c-0.01,0.42-0.83,0.6-0.51,0.96
		c0.24,0.26,0.5-0.57,0.99-0.5c7.68,2.01,13.77,6.52,19.22,12.05c0.19,1.83-0.08,3.42-2.37,3.47c-3.75,0.09-7.36,0.36-10.92-1.92
		c-4.23-2.71-8.29-5.97-13.47-7.2c-0.84,2.22,0.05,4.44-0.73,6.43c-0.43,1.09-0.74,2.86-2.57,1.22c-0.71-2.92-0.13-5.88-0.38-8.8
		C112.74,205.82,114.52,204.11,118.14,204.02z"/>
	<path class="st68" d="M108.06,172.1c-4.86,2.13-10.08-0.02-15.84,1.41c3.8,4.15,8.33,6.75,12.73,8.99c2.66,1.36,4.79,4.1,8.72,3.69
		c3.32-0.35,5.44-1.05,6.45-4.23c0.03,0.32,0.04,0.65,0,0.97c0.67,1.33,0.72,2.64-0.05,3.95c-4.67,0.02-9.35,0.03-14.02,0.05
		c-5.57-1.05-11.18-0.34-16.77-0.39c-2.74-0.03-4.1-0.77-3.66-3.64c0.59-3.81-1.42-7.94,1.47-11.46
		C94.11,170.45,101.15,169.33,108.06,172.1z"/>
	<path class="st69" d="M136.01,188.93c0,0.37,0,0.74-0.01,1.11c0.15,4.53-1.89,6.13-6.45,5.55c-2.03-0.26-4.39-1.1-6.46,0.34
		c-2.13-5.18-0.42-10.59-0.95-15.86c0.2-0.21,0.4-0.42,0.59-0.64c4.24-1.26,8.49-1.18,12.74-0.07c0.21,0.2,0.42,0.4,0.63,0.6
		c-0.03,2.35-0.06,4.71-0.09,7.06C135.45,187.66,135.46,188.3,136.01,188.93z"/>
	<path class="st70" d="M173.06,193.98c0,3-0.01,5.99-0.01,8.99c-3.12,1.05-6.32,0.25-9.48,0.46c-8.64-0.19-15.64-4.56-22.68-8.86
		c-1.53-0.94-2.75-2.06-2.15-3.97c0.54-1.72,2.22-1.85,3.7-1.88c3.29-0.06,6.61-0.44,9.87,0.37c4.34,2.7,8.7,5.39,13.06,8.06
		c2.97,1.82,5.34,3.09,5.93-1.95C171.4,194.39,171.99,193.68,173.06,193.98z"/>
	<path class="st71" d="M143.07,215.95c-6.45-2.78-11.16-8.55-18.08-10.53c-0.63-0.18-1.27-0.31-1.91-0.46l0,0
		c-1.16-4.38,0.17-6.56,5.03-6.04c2.73,0.3,5.58-0.39,8.17,1.04c1.6,3.19,4.8,4.4,7.6,6.09c-0.5,0.95-0.26,1.99-0.32,2.99
		C143.32,211.35,144.1,213.72,143.07,215.95z"/>
	<path class="st72" d="M143.07,215.95c0-2.66,0.01-5.32,0.01-7.99c0.31-0.44,0.62-0.46,0.93,0c0.4,12.8,0.4,12.8-12.33,12.83
		c-5.48,0.01-10.96,0.05-16.43,0.07c-0.45-0.22-0.79-0.57-1.16-0.89l-0.02-0.02c-0.28-0.38-0.24-0.72,0.15-1
		c1.93-3.17,0.13-6.81,1.17-10.13c6.59,1.5,11.67,5.6,17.1,9.01C136.22,220.18,141.88,219.26,143.07,215.95z"/>
	<path class="st73" d="M153.08,189.98c-3.79,0-7.58,0-11.36,0.02c-1,0-2.13,0.03-2.36,1.25c-0.25,1.3,1.08,1.31,1.79,1.9
		c4.47,3.7,10.37,4.75,14.97,8.18c2.09,1.56,5.01-0.48,6.96,1.64c-3.43,1.03-6.95,0.23-10.42,0.49c-2.51,0.22-5.07-0.47-7.55,0.42
		c-5.05-0.83-7.5-3.67-7.06-8.89c0.17-1.97,0.08-3.96,0.11-5.94c0.66-0.84,1.6-1.31,2.6-1.28c7.39,0.21,14.86-1.4,22.15,0.96
		c-0.02,3.52-2.87,2.39-4.68,2.68C156.4,191.69,154.61,191.12,153.08,189.98z"/>
	<path class="st74" d="M153.08,189.98c3.31-0.41,6.78,0.91,9.97-0.9c3.31-2.2,6.65-2.11,10-0.08c0.01,1.66,0.01,3.32,0.02,4.98
		c-0.28,0.39-0.75,0.76-0.83,1.19c-1.18,6.86-1.23,6.95-7.35,3C160.85,195.58,155.99,194.17,153.08,189.98z"/>
	<path class="st75" d="M173.97,169.87c0.02,3.72,0.03,7.45,0.05,11.17c-0.52,0.27-0.98,0.19-1.36-0.26
		c-0.6-0.88-0.75-1.89-0.83-2.91c-0.1-1.2-0.12-2.43-0.91-3.45c-2.68-2-5.74-0.86-8.6-1.01c-4.75-0.24-9.52,0.09-14.28,0
		c-1.23-0.03-2.46-0.15-3.7-0.07c-0.68,0.05-1.33,0.22-1.96,0.46c-1.77,0.7-2.59,2.15-3.03,3.89c-0.26,0.87-0.49,1.76-1.34,2.27
		c-0.63,0.01-1.26,0.01-1.89,0.02c0,0-0.02,0.01-0.02,0.01c-0.55-0.59-0.81-1.28-0.79-2.08c0.34-2.05,1.28-3.84,2.48-5.51
		c5.2-2.49,5.5-7.01,4.92-11.89c0.04-1.9-0.09-3.84,1.27-5.42c0.73-0.01,1.46-0.01,2.18-0.02c0.37,0.44,0.67,0.92,0.91,1.44
		c0.74,2.59,0.56,5.25,0.43,7.87c-0.15,3.19,0.99,4.36,4.29,4.28c6.91-0.16,13.84-0.35,20.75,0.33
		C173.06,169.18,173.54,169.49,173.97,169.87z"/>
	<path class="st76" d="M120.12,198.04c-2.88-1.32-1.99,1.76-3.37,2.87c-3.55-4.24-9.4-5.56-13.82-10.9c6.33,0,11.77,0,17.21,0
		C120.53,192.69,122.04,195.37,120.12,198.04z"/>
	<path class="st77" d="M108.06,172.1c-7.01,0-14.03,0-21.04,0c-0.62,0.42-1.25,0.46-1.88,0.01c0.04-0.51,0.09-1.03,0.13-1.54
		c1.4-1.78,3.37-0.99,5.11-1.05c6.6-0.22,13.27,0.65,19.73-1.37c2.08-1.51,1.21-3.56,1-5.48c-0.29-2.62-0.96-5.27,0.89-7.64
		c0.36-0.02,0.72-0.04,1.07-0.05c0.64,0.46,1.39,0.8,1.76,1.56c1.08,3.5,0.34,7.1,0.61,10.64c0.05,0.68,0.31,1.28,0.75,1.8
		c2.02,1.94,5.44,2.73,5.29,6.44c-0.14,0.18-0.27,0.37-0.41,0.55l-0.48,0c0,0-0.48,0-0.48,0
		C117.24,171.11,112.55,171.92,108.06,172.1z"/>
	<path class="st78" d="M114.21,218.97c-0.05,0.33-0.1,0.67-0.15,1c-0.31,0.01-0.62,0.02-0.93,0.05c-0.15-0.21-0.3-0.43-0.46-0.64
		c-0.38-2.82,0.47-5.72-0.54-8.51c0.06-0.27,0.06-0.53,0.01-0.8c0.29-0.22,0.39-0.5,0.28-0.85c-0.08-0.26-0.17-0.38-0.28-0.38
		c0.06-0.3,0.05-0.6-0.01-0.9c-1.09-1.2-3.04-0.61-4.06-1.96c-7.61-0.55-15.27,0.64-22.85-0.75c-0.03-0.45-0.06-0.9-0.09-1.34
		c0.33-0.41,0.65-0.42,0.96,0.03c10.34-0.31,20.73,0.98,31.03-0.87c0.34,0.32,0.68,0.65,1.02,0.97c-3.07,1.16-4.5,3.18-4.08,6.64
		C114.39,213.4,114.18,216.2,114.21,218.97z"/>
	<path class="st79" d="M173.04,188.99c-3.33,0.03-6.66,0.05-10,0.08c-8.3-0.01-16.6-0.03-24.89-0.04c-1.07-0.66-1.17-1.35-0.06-2.07
		c0.26,0.01,0.51,0.02,0.77,0.01c0.55-0.65,1.28-0.96,2.08-1.16c6.96-0.49,13.93-0.11,20.89-0.24c3.53,0.16,7.08-0.27,10.6,0.35
		c0.56,0.21,1.07,0.52,1.52,0.92c0.02,0.72,0.04,1.43,0.06,2.15c0,0-0.49-0.01-0.49-0.01L173.04,188.99z"/>
	<path class="st80" d="M85.15,172.12c0.63,0,1.25-0.01,1.88-0.01c-1.78,3.81-0.78,7.83-0.81,11.75c-0.02,2.46,2.12,1.96,3.71,2.12
		c5.36,0.52,10.85-1.09,16.12,0.94c-6.98,0.02-13.97,0.04-20.95,0.07C85.11,182.03,85.13,177.07,85.15,172.12z"/>
	<path class="st81" d="M86.09,203.92l-0.48,0.05c0,0-0.48-0.08-0.48-0.08c0-4.94,0-9.89-0.01-14.83c4.62,0.02,9.24,0.03,13.86,0.05
		c-2.89,1.78-6.07,0.77-9.09,0.77c-3.11,0-4.16,1.2-3.79,4.08c0.53,4.38,4.07,6.44,6.96,9C90.75,203.34,88.21,202.08,86.09,203.92z"
		/>
	<path class="st66" d="M162.06,186.94c-7.63,0.04-15.26,0.07-22.88,0.11c-0.37,0.27-0.69,0.23-0.97-0.14c0,0-0.11,0.05-0.11,0.05
		c-0.04-2.34-0.07-4.68-0.11-7.02c0.06-0.96,0.12-1.92,0.18-2.87c1.92-0.02,2.1,1.58,2.12,2.77c0.07,4.14,2.53,4.77,5.95,4.73
		c4.64-0.06,9.29-0.3,13.93,0.21c0.57,0.12,1.09,0.34,1.58,0.66C162.27,185.85,162.37,186.35,162.06,186.94z"/>
	<path class="st82" d="M148.08,205.96c-1.81,3.46-0.85,7.16-0.9,10.76c-0.04,2.47,1.99,2.21,3.62,2.22
		c3.74,0.03,7.48,0.01,11.21,0.98c-5.27,0-10.54,0-15.81,0c-0.04-3.6-0.1-7.2-0.1-10.79C146.09,207.69,145.82,206.02,148.08,205.96z
		"/>
	<path class="st74" d="M152.08,202.97c3.66,0,7.33-0.01,10.99-0.01c3.33,0,6.65,0,9.98,0c-6.91,2.14-13.99,0.52-20.98,0.95
		c-0.32-0.21-0.43-0.42-0.32-0.63C151.86,203.08,151.97,202.97,152.08,202.97z"/>
	<path class="st83" d="M123.09,195.93c0.13-0.95,0.26-1.9,0.39-2.85c0.5,0.53,0.89,1.25,1.5,1.55c4.16,2.02,9.43-0.21,11.02-4.58
		c0.98,4.64-0.71,6.65-5.58,6.01C128.02,195.73,125.54,195.95,123.09,195.93z"/>
	<path class="st70" d="M152.08,202.97c0,0.31-0.01,0.63-0.01,0.94c-2.32-0.01-4.64-0.03-6.96-0.04
		C147.24,202.13,149.76,203.32,152.08,202.97z"/>
	<path class="st77" d="M122.14,180.07c-1.49-1.07-0.94-2.67-1.06-4.09c0,0,0.11-0.08,0.11-0.08c1.48-0.15,1.84,0.95,2.25,2
		c0.15,1.07-0.74,1.51-1.31,2.15L122.14,180.07z"/>
	<path class="st66" d="M120.06,186.87c0.02-1.32,0.03-2.63,0.05-3.95C121.27,184.26,121.52,185.58,120.06,186.87z"/>
	<path class="st83" d="M136.01,188.93c-0.95-0.63-0.96-1.26-0.01-1.9C136.01,187.66,136.01,188.29,136.01,188.93z"/>
	<path class="st67" d="M144.01,207.97l-0.46,0c0,0-0.46,0-0.46,0c0.27-0.64,0.54-1.27,0.8-1.91
		C143.92,206.7,143.97,207.33,144.01,207.97z"/>
	<path class="st78" d="M114.08,219.99c0.39,0.3,0.77,0.59,1.16,0.89C114.85,220.58,114.47,220.28,114.08,219.99z"/>
	<path class="st78" d="M111.81,220.83c0.14-0.26,0.24-0.54,0.29-0.83c0.24-0.46,0.54-0.48,0.89-0.12c0,0,0.12,0.13,0.12,0.13
		C112.69,220.29,112.25,220.56,111.81,220.83z"/>
	<path class="st76" d="M120.13,190.02c-0.03-0.28-0.06-0.57-0.07-0.85c0.15,0.19,0.29,0.38,0.44,0.57
		C120.37,189.84,120.25,189.93,120.13,190.02z"/>
	<path class="st0" d="M131.21,118.16c-0.12-1.17-0.35-2.36,0.88-3.15C132.12,116.15,132.02,117.25,131.21,118.16z"/>
	<path class="st0" d="M130.19,121.14c-0.07-1.18-0.36-2.43,1.09-3.07C131.27,119.22,131,120.27,130.19,121.14z"/>
	<path class="st84" d="M617.99,268.94c-0.51,3.59-2.95,4.61-6.06,4.14c-3.26-0.49-4.68-2.74-4.79-5.98c-0.11-3.37,0.34-6.5,4.14-7.5
		c2.98-0.78,5.61-0.12,6.58,3.38C617.58,264.98,617.02,266.97,617.99,268.94z"/>
	<path class="st85" d="M617.99,268.94c-1.55-1.95-1.44-3.94-0.12-5.96C618.71,264.95,618.72,266.94,617.99,268.94z"/>
	<path class="st86" d="M547.99,263.94c0.5-3.67,2.86-5.16,6.23-4.59c3.79,0.63,4.78,3.63,4.78,7.04c0,3.2-0.87,6.06-4.49,6.69
		c-3.23,0.56-5.94-0.27-6.49-4.16C548.79,267.25,548.83,265.59,547.99,263.94z"/>
	<path class="st87" d="M547.99,263.94c1.49,1.65,1.51,3.31,0.03,4.97C547.49,267.26,547.53,265.6,547.99,263.94z"/>
	<path class="st88" d="M503.38,269.01c-0.13,2.9-1.88,4.47-4.65,4.73c-2.1,0.2-3.78-1.15-3.51-3.21c0.48-3.8,4.1-3.17,6.63-3.84
		C503.78,266.18,503.29,267.88,503.38,269.01z"/>
	<path class="st89" d="M645.5,273.1c-0.27,0.05-0.44-0.05-0.51-0.32c-0.83-1.31-0.55-2.66-0.18-4.02l-0.04,0.04
		c0.53-0.09,0.85-0.49,1.21-0.83c0.12-0.23,0.3-0.3,0.54-0.19c1.1-0.48,2.41-0.02,3.45-0.77c2.63,0.38,2.78,1.32,0.8,4.94
		c-0.17,0.34-0.42,0.58-0.77,0.73c-0.14,0.29-0.37,0.42-0.69,0.38C648.04,273.59,646.77,273.47,645.5,273.1z"/>
	<path class="st90" d="M644.81,268.76c0.06,1.34,0.12,2.68,0.18,4.02C643.5,271.51,643.31,270.17,644.81,268.76z"/>
	<path class="st90" d="M649.97,267.01c-0.93,1.21-2.21,0.89-3.45,0.77C647.55,267,648.76,267.02,649.97,267.01z"/>
	<path class="st90" d="M645.5,273.1c1.27-0.01,2.53-0.02,3.8-0.04C648.04,274.05,646.78,274.15,645.5,273.1z"/>
	<path class="st90" d="M645.98,267.97c-0.4,0.28-0.8,0.55-1.21,0.83C645.18,268.52,645.58,268.25,645.98,267.97z"/>
	<path class="st90" d="M650,272.68c0.26-0.24,0.52-0.49,0.77-0.73C650.51,272.2,650.26,272.44,650,272.68z"/>
	<path class="st91" d="M112.01,155.04c-1.06,4.95,2.71,9.9-0.01,14.85c-2.19-1.14-4.73,0.33-6.91-0.91c-3.71-3.9-8.12-6.78-13-9l0,0
		c-0.13-1.42,0.45-3.03-1.09-4.08c1.82-1.64,4.1-0.49,6.1-1C102.07,154.95,107.04,155,112.01,155.04z"/>
	<path class="st92" d="M105.08,168.98c2.29,0.38,4.8-0.87,6.91,0.91c-8.9,0.55-17.84-0.52-26.72,0.69c0.01-3.15,0.01-6.3,0.02-9.45
		c2.21,7.85,2.21,7.85,11.37,7.86C99.47,168.99,102.28,168.98,105.08,168.98z"/>
	<path class="st91" d="M92.09,159.99c-0.12,0.43-0.25,0.86-0.37,1.3C90.8,160.55,91.7,160.34,92.09,159.99L92.09,159.99z"/>
	<path class="st93" d="M173.97,169.87c-0.3,0.03-0.61,0.05-0.92,0.04c-0.92-0.95-0.16-2.2-0.56-3.17c0.21,1.61-0.2,2.73-2.19,2.73
		c-3.29,0-6.46,0.16-9.48-1.88c-5.2-3.5-10.46-6.86-14.68-11.58c-0.02-0.32-0.01-0.65,0.01-0.97c5.31-0.01,10.61-0.03,15.91-0.02
		c8.9,0,11.91,2.99,11.95,11.87C174.01,167.88,173.98,168.87,173.97,169.87z"/>
	<path class="st94" d="M114.1,168.99c-0.01-4.34-0.02-8.68-0.03-13.01c-0.26-0.24-0.33-0.46-0.21-0.65
		c0.11-0.18,0.22-0.28,0.32-0.28c9.93,0,19.86,0.01,29.79,0.01c0.02,1.99,0.05,3.97,0.07,5.96c-1.24,8.09-1.38,8.14-9.01,4.42
		c-3.3-1.61-6.29-3.51-8.84-6.28c-2.76-3-7.05-2.51-9.65,0.64c-0.37,2.98,0.54,6.08-0.97,8.93
		C115.16,169.25,114.67,169.34,114.1,168.99z"/>
	<path class="st95" d="M173.96,186.85c-0.3,0.04-0.6,0.05-0.91,0.05c-1.5-2-1.71-3.99,0.05-5.97c0.31,0.02,0.61,0.06,0.91,0.1
		C173.99,182.97,173.97,184.91,173.96,186.85z"/>
	<path class="st46" d="M114.18,155.05c-0.04,0.31-0.08,0.62-0.11,0.93c-0.33-0.33-0.66-0.66-0.99-0.99
		C113.45,155.01,113.81,155.03,114.18,155.05z"/>
	<path class="st96" d="M108.07,205.98c1.3,0.76,4.34-2.08,4.06,1.96c-2.47,3.12,0.12,7.09-1.89,10.85
		c-3.22-4.41-8.61-5.31-12.25-8.85c-0.59-0.57-1.56-0.98-1.42-1.84c0.21-1.3,1.45-1,2.4-1.13
		C101.99,206.53,105.22,207.97,108.07,205.98z"/>
	<path class="st96" d="M113,219.88c-0.3,0.05-0.59,0.09-0.89,0.12c0.01-3.04,0.01-6.09,0.02-9.13
		C113.8,213.74,112.63,216.88,113,219.88z"/>
	<path class="st96" d="M112.14,208.85c0.59,0.41,0.59,0.82-0.01,1.23C112.13,209.66,112.14,209.25,112.14,208.85z"/>
	<path class="st97" d="M93.07,202.96c-0.24-0.22-0.51-0.64-0.73-0.62c-6.72,0.64-6.74-3.67-6.24-8.38c5.32-0.72,9.18,2.87,13.4,4.95
		c3.38,1.67,6.29,4.06,10.37,4.05C104.28,202.96,98.67,202.96,93.07,202.96z"/>
	<path class="st71" d="M123.08,204.97c-0.08,0.14-0.15,0.28-0.23,0.42C122.93,205.24,123,205.11,123.08,204.97L123.08,204.97z"/>
	<path class="st66" d="M89.84,175.01c-0.09,0.11-0.19,0.23-0.28,0.34c-0.07-0.13-0.21-0.27-0.2-0.4c0.01-0.12,0.17-0.23,0.27-0.35
		C89.69,174.75,89.77,174.88,89.84,175.01z"/>
	<path class="st98" d="M122.13,180.05c0.31-0.67,0.62-1.34,0.93-2.01c4.31-2.4,8.64-2.31,12.98-0.1c0.01,0.68,0.03,1.36,0.04,2.04
		C131.43,180,126.78,180.02,122.13,180.05z"/>
	<path class="st99" d="M115.09,159c-0.14-2.05,0.68-3.09,2.87-3.02c4.11,0.13,8.07-0.89,11.03,4.04c2.25,3.75,7.53,4.57,11.53,6.56
		c1.64,0.82,2.44-0.2,2.54-1.88c0.08-1.28-0.32-2.72,0.98-3.68c0.36,5.15,0.93,10.41-5.9,12.05c-2.23,1.13-4.21,1.04-6.51-0.3
		c-3.87-2.25-7.65-4.66-11.51-6.92C117.59,164.35,115.32,162.34,115.09,159z"/>
	<path class="st74" d="M115.09,159c5.92,7.58,13.77,11.99,23.05,14.07c-0.7,1.62-1.4,3.25-2.1,4.87c-4.33,0.03-8.65,0.07-12.98,0.1
		c-0.62-0.71-1.25-1.42-1.87-2.13c-0.65-3.4-3.47-4.56-6.11-5.89c-0.25-0.23-0.33-0.46-0.26-0.69c0.08-0.23,0.16-0.35,0.24-0.35
		C115.07,165.64,115.08,162.32,115.09,159z"/>
	<path class="st100" d="M161.07,185.98c-5.61,0-11.24-0.26-16.84,0.08c-4.2,0.25-5.73-1.23-5.19-5.31c0.16-1.25,0.36-2.68-0.87-3.67
		c0.78-1.84,1.37-3.87,3.86-4.11c0.19-0.28,0.45-0.35,0.73-0.22c0.17,0.05,0.29,0.19,0.3,0.39c-0.02-0.01,0.23-0.01,0.23-0.03
		c-0.17-0.11-0.3-0.23-0.41-0.4c-0.09-0.26-0.02-0.44,0.21-0.56c1.32-0.03,2.64-0.06,3.96-0.08c0.58,1.95-0.74,3.23-1.67,4.63
		c-0.15,0.51-0.86,0.23-1.04,0.72c0.6-0.21,1.02-0.72,1.59-1c6.31-0.53,10.04,4.54,14.98,6.97
		C161.75,183.78,161.92,185.05,161.07,185.98z"/>
	<path class="st101" d="M145.08,176.98c-0.4-2.07,1.04-3.4,1.97-4.93c7.42-0.01,14.83-0.05,22.25-0.02
		c1.51,0.01,3.52-0.63,3.76,1.95c-4.89,0.94-9.86-0.24-15.68,0.57c5.53,2.41,8.98,6.76,14.29,8.04c0.76,0.18,0.84,0.93,0.88,1.62
		c0.02,1.63-0.81,2.36-2.39,2.24c-2.69-0.2-5.44,0.52-8.09-0.47l-0.5,0c0,0-0.5,0-0.5,0C156.82,181.05,151.53,177.99,145.08,176.98z
		"/>
	<path class="st102" d="M146.13,156.01c1.26,0.13,2.88-0.53,3.62,0.91c3.09,6.01,9.74,7.48,14.52,11.32
		c3.51,2.83,7.32,0.59,8.78-4.16c0,1.94,0,3.88,0,5.83c-8.12,0.06-16.25-0.05-24.35,0.27c-2.51,0.1-2.72-0.8-2.67-2.74
		C146.13,163.63,146.1,159.82,146.13,156.01z"/>
	<path class="st95" d="M172.07,182.98c-1.89,0.95-3.53,0.09-5.15-0.74c-3.34-1.69-5.43-5.39-9.59-5.88c-0.58-0.07-1.4-1.58-1.38-2.4
		c0.04-1.43,1.48-1.01,2.34-0.95c4.93,0.36,9.97-1.04,14.79,0.96c0,1.33,0.01,2.66,0.01,4
		C171.83,179.46,173.26,181.48,172.07,182.98z"/>
	<path class="st100" d="M172.07,182.98c0.24-1.69-0.66-3.6,1.01-5c0.01,0.99,0.01,1.97,0.02,2.96c-0.02,1.99-0.03,3.98-0.05,5.97
		c-3.66,0.01-7.33,0.03-10.99,0.04c0.01-0.32,0.01-0.64,0.01-0.96c2.42,0,4.85-0.07,7.27,0.01
		C171.51,186.06,172.17,184.9,172.07,182.98z"/>
	<path class="st101" d="M143.09,172.13c0,0.28-0.01,0.56-0.01,0.85l-0.01,0.01c-0.35-0.01-0.7-0.02-1.05-0.03
		C142.38,172.68,142.73,172.41,143.09,172.13z"/>
	<path class="st99" d="M115.06,168.97c0.01,0.35,0.01,0.69,0.02,1.04c-0.32-0.34-0.65-0.68-0.97-1.01
		C114.42,168.98,114.74,168.98,115.06,168.97z"/>
	<path class="st100" d="M138.2,186.91c0.32,0.04,0.65,0.08,0.97,0.14C138.78,187.51,138.44,187.57,138.2,186.91z"/>
	<path class="st101" d="M143.08,173.98c0.01,0.57,0.92,1.13,0.02,1.7c-0.09,0.06-0.37-0.02-0.45-0.13
		C142.04,174.83,142.44,174.37,143.08,173.98L143.08,173.98z"/>
	<path class="st101" d="M144.82,177.4c-0.25,0.1-0.6,0.38-0.78,0.29c-0.41-0.18-0.34-0.49,0.12-0.61c0.3-0.07,0.61-0.07,0.92-0.11
		C145,177.11,144.92,177.24,144.82,177.4z"/>
	<path class="st101" d="M143.08,172.98c0.68,0.34,0.68,0.67,0,1c0,0,0,0,0,0C143.08,173.65,143.08,173.32,143.08,172.98
		C143.07,172.99,143.08,172.98,143.08,172.98z"/>
</g>
</svg>
