<?xml version="1.0" encoding="utf-8"?>
<!-- Generator: Adobe Illustrator 25.0.0, SVG Export Plug-In . SVG Version: 6.00 Build 0)  -->
<svg version="1.1" id="Layer_1" xmlns="http://www.w3.org/2000/svg" xmlns:xlink="http://www.w3.org/1999/xlink" x="0px" y="0px"
	 viewBox="0 0 722 456" style="enable-background:new 0 0 722 456;" xml:space="preserve">
<style type="text/css">
	.st0{fill:#1534CB;}
	.st1{fill:#FFFFFF;}
	.st2{fill:#F7F8FA;}
	.st3{fill:#1128CD;}
	.st4{fill:#1326C6;}
	.st5{fill:#1427C6;}
	.st6{fill:#FDFDFD;}
	.st7{fill:#FCFDFC;}
	.st8{fill:#FCFDFD;}
	.st9{fill:#FAFBFB;}
	.st10{fill:#626263;}
	.st11{fill:#F9FAFB;}
	.st12{fill:#F3F4FA;}
	.st13{fill:#949495;}
	.st14{fill:#F6F7FA;}
	.st15{fill:#F8F9FA;}
	.st16{fill:#F5F7F9;}
	.st17{fill:#F1F2F8;}
	.st18{fill:#F2F3F9;}
	.st19{fill:#F2F4F9;}
	.st20{fill:#F5F6F9;}
	.st21{fill:#8C8C8D;}
	.st22{fill:#3D445C;}
	.st23{fill:#F4F7F9;}
	.st24{fill:#8B8B8C;}
	.st25{fill:#F6F7FB;}
	.st26{fill:#63604F;}
	.st27{fill:#B6C1ED;}
	.st28{fill:#1F39CC;}
	.st29{fill:#203ACC;}
	.st30{fill:#152FC6;}
	.st31{fill:#0A1FC7;}
	.st32{fill:#0D24C7;}
	.st33{fill:#0517C0;}
	.st34{fill:#DADFF4;}
	.st35{fill:#0B26C2;}
	.st36{fill:#0920C4;}
	.st37{fill:#0922C5;}
	.st38{fill:#090EC4;}
	.st39{fill:#061FC4;}
	.st40{fill:#1325C5;}
	.st41{fill:#0F21C6;}
	.st42{fill:#071AC4;}
	.st43{fill:#0819BF;}
	.st44{fill:#0918C5;}
	.st45{fill:#4C5659;}
	.st46{fill:#090FC2;}
	.st47{fill:#0A15C9;}
	.st48{fill:#384271;}
	.st49{fill:#081CC6;}
	.st50{fill:#0521BD;}
	.st51{fill:#0912C5;}
	.st52{fill:#1E37CB;}
	.st53{fill:#0921CA;}
	.st54{fill:#0919BD;}
	.st55{fill:#0B08BE;}
	.st56{fill:#080FB7;}
	.st57{fill:#061BC0;}
	.st58{fill:#071EBB;}
	.st59{fill:#0314BC;}
	.st60{fill:#99ADF1;}
	.st61{fill:#060BBD;}
	.st62{fill:#1C38CB;}
	.st63{fill:#AAAAAA;}
	.st64{fill:#9D9D9E;}
	.st65{fill:#8E8E90;}
	.st66{fill:#9D9D9F;}
	.st67{fill:#979798;}
	.st68{fill:#8C8D8E;}
	.st69{fill:#88898A;}
	.st70{fill:#979799;}
	.st71{fill:#A2A1A1;}
	.st72{fill:#8F8F91;}
	.st73{fill:#848486;}
	.st74{fill:#535354;}
	.st75{fill:#969698;}
	.st76{fill:#5B5B5D;}
	.st77{fill:#6B6B6D;}
	.st78{fill:#555657;}
	.st79{fill:#A5A3A7;}
	.st80{fill:#ADAAAF;}
	.st81{fill:#A2A0A2;}
	.st82{fill:#9A9A9C;}
	.st83{fill:#1533CB;}
	.st84{fill:#0618C0;}
	.st85{fill:#1634CB;}
	.st86{fill:#0A0AC4;}
	.st87{fill:#233CCD;}
	.st88{fill:#1939CC;}
	.st89{fill:#2B41CC;}
	.st90{fill:#868687;}
	.st91{fill:#969598;}
	.st92{fill:#6F6F70;}
	.st93{fill:#78787A;}
	.st94{fill:#787879;}
	.st95{fill:#A5A5A7;}
	.st96{fill:#A2A2A4;}
	.st97{fill:#666668;}
	.st98{fill:#7E7E80;}
	.st99{fill:#808082;}
	.st100{fill:#7D7E7F;}
	.st101{fill:#767678;}
</style>
<g>
	<path class="st0" d="M15.2,25.1c-0.1-3.3,2-5.9,2.9-8.8c1.5-2.5,3.2-4.9,6.1-6l0,0c1.5-2.8,4.4-2.6,6.9-3.1l0,0
		c3-1.5,6.2-0.5,9.3-0.5c28.4-0.1,56.9,0,85.3-0.1c5.2,6.2,13.1,6,20,8.2c11.3,3.6,22.5,7.2,33.1,12.5c7.4,3.7,12.1,9.2,14.2,17
		c4.1,14.6,7.4,29.4,11.3,44c10.5,39.8,20.5,79.7,30.7,119.5c0.9,3.5,2.7,4.9,6.3,4.8c14.8-0.1,29.7-0.2,44.5,0
		c4.1,0.1,6.4-1.4,8-5.2c8.9-21.6,17.9-43.1,26.9-64.6c18.3-43.8,36.4-87.7,55-131.4c0.9-2,1.3-4.6,4.2-5.1
		c7.2,0.3,14.4-0.1,21.6,0.1c2.2,1.5,1.3,3.6,0.9,5.4c-9.7,45.4-19.4,90.8-29,136.3c-4.1,19.4-8.3,38.7-12.3,58.2
		c-1.2,5.7-0.8,6.1,4.9,6.1c13,0,26-0.1,39,0.1c4.3,0.1,6.2-1.6,7.1-5.8c4.5-21.3,8.9-42.7,13.5-64c7-32.9,14-65.8,21-98.7
		c2.1-10.1,4.4-20.2,6.5-30.3c0.5-2.6,0.5-5.8,3.5-7.3c21.2,0,42.5,0,63.7,0c1,0.1,2.3,0.1,1.3,1.6c-1,1.4-2.8,1.7-4.3,2.4
		C505.2,15.8,494,22.4,485.5,33c-10.7,13.4-15,28.6-12.8,45.3c1.9,14.2,10.8,24.4,21.5,33.1c6.2,5,13.1,9.2,20.2,12.8
		c7,3.5,14.1,6.8,20.5,11.4c2,1.5,4,2.9,5.8,4.7c9.2,9.1,8.3,20.8-2.7,27.9c-9.8,6.3-20.8,7.5-32.2,6.7c-14.8-1-29-4.3-42.3-10.8
		c-3.2-1.6-4.6-0.5-5.2,2.7c-2.4,11.2-4.8,22.5-7.2,33.7c-0.9,4.1,0.6,6.2,4.5,7.4c12,3.8,24.2,6.1,36.7,7.4
		c17.5,1.9,34.9,0.9,52-3.7c15.6-4.2,29.5-11.3,40.7-23.2c15.9-16.9,20.6-47,9.8-66.6c-6-11-15.5-18.7-26.1-24.9
		c-8.2-4.8-16.5-9.3-25-13.6c-4.6-2.4-9-5.1-12.7-8.8c-8.2-8.3-7-18.7,3-24.8c9.5-5.8,20.1-6.7,30.9-5.7c11.1,1,22.1,3,32.5,7.6
		c3.3,1.5,4.5,0.1,5.2-3c2.4-11.2,4.7-22.5,7.2-33.7c0.5-2.4-0.4-3.8-2.6-4.6c-1.4-0.5-2.9-0.9-3.9-2.1c-1-1.3-0.1-1.7,1.1-1.7
		c26.4,0,52.9,0,79.3,0c2.3,0,4.6-0.5,6.9-0.4c2.5,0.8,1.6,2.4,0.3,3.2c-10.1,6.6-12.4,17.9-16.6,27.9
		c-23.7,56.7-47.2,113.5-71,170.1c-2.1,5.1-2.1,5.2,3.4,5.2c14,0,28-0.2,42,0.1c4.9,0.1,7.2-1.7,8.6-6.3c1.9-6.6,4.7-12.8,6.7-19.4
		c1.1-3.7,3.5-5.4,7.3-5.4c12,0,24,0,36,0c1.7,0,3.3,0.1,4.7,1.3c0,0.4,0,0.7,0,1c-0.6,0.6-0.6,1.4-0.6,2.3
		c0.2,78.6,0,157.2,0.1,235.7c0,1.6-0.5,3.3,0.5,4.9c0,0.3,0,0.6,0,1c-0.8,1-0.7,2-0.2,3c-1.7,9.1-8.2,15.5-17,17.2
		c-4.1,0.8-8.3,0.6-12.5,0.6c-213.9,0-427.7,0-641.5,0c-9.5,0-17.9-2.1-23.1-11c-1.4-2.4-2.7-5-2.6-7.9c0.8-1.8,0.4-3.6,0.4-5.4
		c0-131.3,0-262.6,0-393.9C15.6,28.7,15.9,26.9,15.2,25.1z"/>
	<path class="st1" d="M712,182.9c-13.3,0-26.7,0.2-40-0.1c-4.2-0.1-5.8,1.4-7,5.1c-2.4,7.6-5.3,15.1-7.8,22.6
		c-0.8,2.5-2.1,3.4-4.7,3.4c-16.7-0.1-33.3-0.1-50,0c-3.3,0-3-1.1-2-3.5c6.7-15.8,13.2-31.6,19.8-47.4
		c10.9-26.2,21.8-52.5,32.7-78.7C662,63,671,41.5,680,20.1c2.4-5.8,7-9.6,12-13c2.9-1.5,5.4-0.2,7.9,1.2l-0.1-0.1
		c1.2,0.4,2.7,0.3,3.1,1.9c7.2,5.5,9.9,12.7,9.4,21.7c-0.5,10.7-0.3,21.5-0.4,32.2c-3.1,6.4-5,13.3-7.5,19.9
		c-6.2,16.5-12.2,33-18.1,49.6c-1.7,4.7-1.5,5.1,3.6,5.1c5.5,0.1,11,0,16.4,0c2,0,4-0.2,5.6,1.4C712.5,154.3,712.4,168.6,712,182.9z
		"/>
	<path class="st0" d="M712,140c-8.3,0-16.6-0.1-24.9,0c-3.1,0-4.6-0.2-3.2-4.1c8.5-23,16.8-46,25.3-69c0.4-1.1-0.2-3.9,2.7-2.8
		c0,1,0,2,0,3c-0.7,1-0.5,2.2-0.5,3.4c0,21.7,0,43.5,0,65.2c0,1.1-0.3,2.3,0.5,3.4C712,139.4,712,139.7,712,140z"/>
	<path class="st2" d="M699.9,8.3c-2.7-0.2-5.1-1.8-7.9-1.2c-29.6,0-59.3,0-88.9,0c-1.9,1.8-4.3,1.5-6.6,1.5
		c-22.6,0.1-45.2,0.1-67.8,0c-2.3,0-4.7,0.3-6.6-1.5c-22,0-44,0-65.9,0c-1.8,1.6-4,1.5-6.1,1.6c-13.9,0.1-27.9,0.1-41.8,0
		c-2.2,0-4.3,0-6.1-1.5c-7.6,0-15.3,0-23-0.1c-1.7,1.1-3.6,1.6-5.7,1.6c-17.1,0-34.2,0.2-51.3-0.1c-29.2,0.2-58.3,0.2-87.5,0
		c-1.2,0-2.3,0-3.5,0.1c-32.6,0.2-65.2,0.1-97.9,0.1c-2.2,0-4.4,0-6.1-1.6c-32,0-64,0.1-96,0.1c1.2-1.4,2.8-1.8,4.5-1.7
		C66.9,6.8,98.2,5.9,129.4,6C206.2,6.2,283,6.1,359.7,6c6.4,0,12.9-1.2,19-1c5.9,0.2,12,0.4,18,0.6c27.8,0.8,55.6,0.2,83.4,0.3
		c36.8,0.1,73.6,0,110.4,0c29.3,0,58.6,0,87.8,0c4.7,0,9.3,0.1,13.6-2l0,0C693.8,7,698.3,4.9,699.9,8.3z"/>
	<path class="st3" d="M15.2,25.1c1.5,1.6,0.8,3.5,0.8,5.2c0,131.4,0,262.8,0,394.3c0,1.8,0.6,3.7-0.9,5.2c-0.1-2.1-0.4-4.3-0.4-6.5
		c0-130.3,0-260.6,0-390.9C14.8,30,15.1,27.6,15.2,25.1z"/>
	<path class="st4" d="M712,426.9c-1.9-1.8-1-4.1-1-6.2c0-76.3,0-152.6-0.1-228.9c0-2.2,0.5-4.5-0.7-6.8c-0.8-1.6,1.1-0.7,1.8-1.1
		c0.1,1,0.2,2,0.2,3c0,78.8,0,157.6,0,236.5C712.2,424.6,712.1,425.7,712,426.9z"/>
	<path class="st5" d="M712,139c-1.4-1.1-1-2.7-1-4.1c0-21.2,0-42.4,0-63.6c0-1.4-0.4-3,1-4.2C712.5,91,712.4,115,712,139z"/>
	<path class="st2" d="M31.2,7.1c-2.3,1-4.6,2.1-6.9,3.1C23.5,4.9,23.5,4.9,31.2,7.1z"/>
	<path class="st2" d="M24.2,10.2c-2,2-4,4-6.1,6c-0.5-3,3.4-4.2,2.9-7.2l0,0C22.1,9.4,23.2,9.8,24.2,10.2z"/>
	<path class="st2" d="M702.9,10.1c-1-0.6-2.1-1.3-3.1-1.9c1.2,0.1,2.3-1.4,3.5-0.6C704.3,8.4,703.1,9.3,702.9,10.1z"/>
	<path class="st2" d="M514.7,4.5c-0.9,0.3-1.3,0.5-1.7,0.5c-0.3,0-0.6-0.4-1-0.6c0.3-0.1,0.6-0.3,0.8-0.3
		C513.3,4.1,513.7,4.3,514.7,4.5z"/>
	<path class="st2" d="M21.1,9.1C20.4,8.6,20,8,20.3,7.1c0-0.1,0.2-0.2,0.4-0.2C20.8,7.6,21,8.3,21.1,9.1L21.1,9.1z"/>
	<path class="st4" d="M711.8,430.9c-1.2-1.1-1.2-2.1,0.2-3C712,428.9,711.9,429.9,711.8,430.9z"/>
	<path class="st2" d="M697.1,4.3c0,0.1,0.1,0.3,0.1,0.4c-0.1,0.1-0.3,0.1-0.4,0.1c0-0.1-0.1-0.3-0.1-0.4
		C696.8,4.4,697,4.4,697.1,4.3z"/>
	<path class="st1" d="M127.1,7c34.7,0,69.3,0,104,0c8.8,3.7,13,10.9,14.8,19.9c3,14.8,5.6,29.8,8.4,44.6c4.3,23,8.7,46.1,13.4,69.3
		c3.3-7,6.1-14.2,8.9-21.4c13.8-35.7,28.1-71.2,42-106.8c0.8-2,1.6-4,3.4-5.4c19,0,38,0,57-0.1c-22.5,54-45,108-67.6,161.9
		c-5.8,14-11.7,27.9-17.5,41.9c-1,2.4-2.4,3.2-4.9,3.2c-16.7-0.1-33.3-0.1-50,0c-3.4,0-4.3-1.6-4.9-4.2
		c-7.3-28.8-14.7-57.6-22.1-86.4c-6.4-25.2-13-50.5-19.3-75.8c-2.4-9.5-7.3-16.2-16.6-20.3c-14.4-6.3-29.1-11.3-44.4-14.6
		C128.5,12.1,126.2,11,127.1,7z"/>
	<path class="st1" d="M522,7.1c24.2-0.1,48.4-0.2,72.6-0.2c2.8,0,5.6,0.1,8.4,0.2c2.5,2.5,7.8,0.9,8.6,4.7c0.7,3-1,6.4-1.7,9.7
		c-2.2,10.1-4.5,20.1-6.5,30.1c-0.6,3.2-1.6,3.2-4.2,2c-13.6-5.9-27.9-8.8-42.7-8.5c-8,0.1-15.8,1.5-22.7,6.3
		c-8.2,5.8-9.2,14.6-2.2,21.7c7.6,7.8,17.9,11.4,27.1,16.6c9.2,5.3,18.5,10.4,26.4,17.7c16,14.7,19.9,32.9,15.4,53.3
		c-5.7,25.4-22.7,40.5-46.3,49.3c-14.8,5.5-30.3,7.9-45.9,7.6c-18.3-0.4-36.4-2.9-53.9-8.8c-4-1.3-5.9-2.8-4.6-7.8
		c3-11.9,5.3-23.9,7.6-36c0.8-4.3,2.4-4.4,5.9-2.6c15.7,7.9,32.5,11.4,50.1,11.3c8.5-0.1,16.9-1.7,24.2-6.6
		c10.1-6.8,11.2-17.2,2.6-25.7c-4.5-4.5-9.9-7.8-15.6-10.7c-12.4-6.4-24.8-12.7-35.5-22c-25.6-22.1-21.7-55.8-4-77.4
		C494.8,19.5,508,12.8,522,7.1z"/>
	<path class="st1" d="M402,7.1c18,0,36,0,54,0c-6.5,30.5-12.9,60.9-19.4,91.4c-7.9,37.1-15.8,74.2-23.6,111.3
		c-0.7,3.3-2.1,4.3-5.4,4.3c-15-0.1-30-0.3-44.9,0.1c-5,0.1-4.3-2.3-3.7-5.4c4.3-20.2,8.6-40.5,13-60.8c7-32.9,14-65.8,21-98.7
		C396,35.3,399,21.2,402,7.1z"/>
	<path class="st6" d="M155.2,405.9c4-9.5,8.1-19,12.1-28.4c1.9-4.4,12.6-7.6,16.3-4.9c0.8,0.6,1.1,2,1.3,3.1
		c2.9,13.8,5.6,27.7,8.6,41.5c0.7,3.2,0.2,4.2-3.1,4c-4-0.3-9.2,1.6-9.1-5.4c0-0.2,0-0.4-0.1-0.5c-3.9-2.9-8.2-0.6-12.4-1.2
		c-1.7-0.2-3.6-0.5-4.5,2c-0.6,1.8-0.5,4.6-2.7,4.9c-3.6,0.5-7.3,0.3-10.9,0.1c-1.5-0.1-0.9-1.4-0.6-2.3c0.7-1.9,1.4-3.7,2-5.6
		c0.4-0.7,0.3-1.6,0.9-2.2l0,0c0.6-0.5,0.4-1.4,0.9-2c0.3-0.2,0.4-0.4,0.2-0.7C154.6,407.5,154.5,406.5,155.2,405.9z"/>
	<path class="st6" d="M61.9,372c0.7,0.3,1.5,0.6,2.2,0.8l0,0c3.1,2.8,3,6.8,3.8,10.5c1.3,6.6,2.5,13.2,4,21.1
		c4.8-11.7,9.1-22.1,13.4-32.5c3.9-1,7.8-1,11.8,0c1.5,2-0.1,3.5-0.8,5c-5.4,13.2-11.1,26.3-16.4,39.6c-1.4,3.5-3.2,4.7-6.9,4.6
		c-8.5-0.3-8.5-0.1-10.6-8.1c-2.1-8.2-4.8-16.3-6.1-24.6c-1.3-8.2-5.6-12.2-13.4-13.7c-1-0.2-4.6,0.8-2.5-2.7
		C47.5,371,54.7,371,61.9,372z"/>
	<path class="st7" d="M148.4,412.8c-7.2,8.7-20.8,11.7-31.8,7.5c-3.4-1.3-1.9-3.3-1.6-5.2c1.1-6.1,1.1-6,7-4.5
		c3.4,0.9,6.8,1.5,10.3,0.5c2-0.6,3.9-1.4,4.3-3.6c0.4-2.1-1.2-3.4-2.8-4.3c-2.6-1.5-5.3-2.8-7.8-4.5c-9.2-6.1-9.2-17.4,0.2-23.4
		c7.3-4.7,15.3-4.7,23.5-2.5c2.6,0.7,2.3,2.1,2,4.1c-1.1,6.7-1.1,6.7-7.4,5.5c-2.6-0.5-5.3-0.6-7.9,0c-1.6,0.4-3.2,1.2-3.6,3.1
		c-0.4,2,0.9,3.1,2.4,4c2.8,1.7,5.8,3.3,8.6,5c3,1.8,4.8,4.5,6.2,7.6c1,2,0.8,4,0.1,6c-0.2,0.2-0.3,0.4-0.1,0.7c-0.7,1,0,2.4-1,3.2
		l0-0.1C148.8,412.1,148.5,412.4,148.4,412.8z"/>
	<path class="st8" d="M110,402.6c-1.1,4.7-2.4,9.3-3.2,14.1c-0.6,3.5-2,4.6-5.5,4.5c-8.3-0.2-8.3,0-6.5-8.5
		c2.5-11.9,5.2-23.7,7.5-35.6c0.7-3.8,2.2-5.6,6.2-4.9c0.3,0.1,0.7,0,1,0c6.8,0,6.8,0,5.4,6.6c-1.2,6-2.4,12-3.6,18.1
		C111.7,399,111.4,400.9,110,402.6z"/>
	<path class="st9" d="M153.1,105.8c0.2,10.8-2.1,20.1-6.6,28.8c-1.2,2.3-2.6,4.3-5.4,2.9c-2.8-1.4-1.9-3.8-0.8-6
		c8.3-16.5,8.3-32.9-0.1-49.4c-1.2-2.4-1.7-4.6,1.1-5.9c2.5-1.2,3.9,0.7,5,2.7C150.5,86.2,153.1,96.6,153.1,105.8z"/>
	<path class="st10" d="M170.5,219.7c-1.7,2.1-4,2.1-6.3,2.1c-23.2,0-46.4,0-69.6,0c-1.8,0-3.6-0.6-5.3-0.9c-0.4-0.6-0.2-1.1,0.3-1.4
		c7-0.4,13.9,0.3,20.9,0.1c0.8,0,1.6-0.1,2.4-0.2c0.3,0,0.5,0,0.8,0c0.3,0,0.5,0,0.8,0c0.8,0.1,1.6,0.1,2.4,0.1
		c6.6,0,13.3,0,19.9,0.1c5.9,0,5.9,0,5.9-5.7c0-1.5,0-3,0-4.5c0-0.7,0-1.4-0.2-2.1c-2.3-2.4-5.8-3.7-7.4-6.8
		c-5.9-2.4-10.1-1.6-14,2.5c-0.7,0.7-1.5,1.3-2.5,1.5c-0.8,0-1.4-0.2-1.7-0.9c0.1-2.2,2.1-3.5,2.4-5.6c1.1-2.3,0.3-4.7,0.1-7
		c0-0.4,0.1-0.8,0.1-1.2c-0.8-0.8-0.8,0.6-1.4,0.4c-6.4,0.6-12.8,0.1-19.1,0.4c-4.6-0.6-9.3,1-13.8-1.2c-0.7-0.9-0.7-1.7,0-2.6
		c4.5-2.2,9.3-0.7,14-1.1c2.1-0.2,4.2,0,6.4-0.1c4.1,0,8.2,0.1,12.3,0c2.4,0,1.8-1.6,1.4-3c-0.1-0.5-0.2-0.9-0.3-1.4
		c-0.1-1.8-0.3-3.5,0.8-5.1c0.5-0.4,1-0.4,1.4,0c1.2,1.2,1.3,2.9,1.8,4.4c1.1,4.5-0.5,9.2,1.2,13.6c2,1,4.2,0.4,6.3,0.6
		c3.2,0.3,4.6-1.1,4.2-4.3c0-0.5,0-1,0-1.5c0-0.8,0-1.6,0-2.4c0.1-2.2-0.3-4.5,1.2-6.4c0.7-0.6,1.5-0.7,2.3-0.3
		c1.6,1.9,1.2,4,0.9,6.2c-0.3,1.2-0.4,2.4-0.1,3.6c0.3,1.6,0.3,3.2,0.3,4.9c0.2,5.5,1,6.5,6.5,8.1c2.1,0.1,4.3,0,6.4,0
		c6.2-0.4,12.6,1,18.8-0.9c1.2-2.6,0.4-5.2,0.6-7.9c0.1-1.8,0-3.6,1.3-5c0.7-0.2,1.2,0,1.5,0.6c0.2,7,0.1,13.9,0.1,20.9
		c-2.5,2-2.3-1.3-3.5-1.8c-1.8-1.8-4.1-1.1-6.2-1.1c-5.2,0-10.3-0.2-15.5,0.4c-3.7,3.4-1.8,7.4-1.1,11.2c5.5,1.3,11,0.7,16.6,0.3
		C166.8,219,168.7,218.4,170.5,219.7z"/>
	<path class="st11" d="M132.1,99c-0.2-3.9-1.9-7.3-3.6-10.7c-1.2-2.3-1.8-4.6,1.1-5.9c2.6-1.2,4,0.7,5,2.7c7.3,14.5,7.3,29,0.1,43.5
		c-1.1,2.1-2.5,4.4-5.4,2.8c-2.7-1.5-1.8-3.8-0.7-6.1c0.7-1.3,1.1-2.7,1.6-4.1c0-0.2,0-0.4-0.1-0.6c0-0.8,0-1.6,0.2-2.4
		c0.1-0.4,0.3-0.8,0.5-1.2c0.3-1.1,0.3-2.3,0.9-3.3C132.6,108.8,131.8,103.9,132.1,99z"/>
	<path class="st12" d="M572.9,262.7c-1.3,3.4-0.4,6.9-0.7,10.4c-0.1,1.4,0.5,3.1-2,3.2c-2.3,0-2.3-1.3-2.3-2.9c0-4.8,0.1-9.7,0-14.5
		c0-2.3,2.2-3.7,2.8-2.5c2.2,3.9,3.7,0.7,5.4,0c1.6-0.6,3.8-1.3,4.8-0.2c3.4,3.6,6.2,1.3,9.6,0c4.1-1.5,7,0.7,8.3,4.8
		c1,4.2,0.2,8.5,0.5,12.8c0.1,1.8-0.6,2.7-2.5,2.7c-1.9,0-2.7-1-2.8-2.7c-0.2-3.3,0-6.6-0.1-9.9c-0.3-3-2.3-3.9-5-3.9
		c-2.7,0.5-3.2,2.5-3.2,4.8c0,3,0,6,0,9c0,1.5-0.3,2.5-2.2,2.6c-2,0.1-2.6-0.8-2.5-2.7c0.1-3,0.1-6,0-9c-0.1-5.4-2.2-6.5-7.1-3.6
		C574,261.7,573.7,262.4,572.9,262.7z"/>
	<path class="st13" d="M148.1,206c7.1,0,14.3,0,21.4,0c1.3,0,2.7-0.3,3.6,1c-3.1,2.4-6.8,0.5-10.6,1.7c3.2,2,5.2,5.4,9.6,3.5
		c1.6-0.7,1.8-0.1,1.1,3.9c-0.2,1.7-1.3,2.8-2.7,3.7c-6.8,1.5-13.7,1.1-20.6,1.1c-1.3,0-2.7,0.4-3.6-0.9c4.8-1,9.5-0.1,13.8-0.5
		c-3,0-6.6-0.1-10.1,0c-2.3,0.1-3.6-0.6-3.2-3.1C147.1,212.9,145.2,209.1,148.1,206z"/>
	<path class="st14" d="M622.1,271.9c-0.3,0.1-0.3,0.3-0.3,0.5c0,0.6-0.4,1.1-0.9,1.4l0,0c-0.3,0.4-0.6,0.7-1,1
		c-3.4,2.2-6.9,2.6-10.6,0.9c-3.6,0.8-1.3,3.7-1.8,5.5c-0.3,1.3-0.8,2.1-2.2,2.1c-1.1,0-2.7,0.2-2.7-1.4c0.2-8.6-1.2-17.3,0.7-25.9
		c3.4,2.1,6.5,0.8,10-0.1c4.7-1.1,7.6,2,9.5,6c1.2,2.6,1,5.2,0.1,7.9l0-0.1C622.4,270.5,622.6,271.3,622.1,271.9z"/>
	<path class="st15" d="M119.2,111.2c1.8-5.8,0.1-11-2.2-16.2c-1-2.3-2.6-4.7,0.7-6.3c3.2-1.6,4.2,1.2,5.5,3.3
		c2.2,3.8,2.6,8.1,3.8,12.2c0.9,1.9,0.9,3.7,0,5.6c-1.2,4.1-1.7,8.4-3.9,12.2c-1.3,2.2-2.4,4.9-5.6,3.2c-2.7-1.5-1.8-3.8-0.7-6.1
		C118.1,116.6,119.4,114.1,119.2,111.2L119.2,111.2z"/>
	<path class="st14" d="M540.9,254.9c-1.7,0.7-2.7-0.8-4-1.3c-5.8-2.1-10.3-0.3-12.7,5.3c0.1,2.6,0.1,5.3,0,7.9
		c0.6,2.7,2.1,4.5,4.8,5.1c2.7-0.2,5.3,0,8-0.1c1.2-0.4,2.4-0.9,3.6-1.3c0.8,2.9-0.5,4.4-3.1,5.3c-5.8,2.2-12.8,0.5-16.3-4
		c-3.8-4.8-3.9-12.7-0.2-17.7c3.5-4.8,10.2-6.6,16.1-4.6c1.9,0.6,3.1,1.8,3.7,3.6C541.7,253.8,541.5,254.3,540.9,254.9z"/>
	<path class="st2" d="M442.8,249.1c3.7,6.4,4.5,14,8.3,21.8c2.5-7.8,4.8-14.7,7-21.5c1.2-1.5,2.5-1.3,3.9-0.1
		c-1.7,8.8-5.5,17-8.3,25.4c-0.8,2.4-5.6,2.4-6.4,0c-2.7-8.5-6.7-16.6-8.2-25.4C440.3,248.1,441.5,248.2,442.8,249.1z"/>
	<path class="st16" d="M563.8,266.7c-0.9,3-1.5,6.1-4.3,8.1c-4,2.7-8.1,2.9-12.1,0.3c-3.8-2.4-5.5-7.9-3.9-12.4c1.6-4.6,5-7,9.8-7
		c4.8,0,8.1,2.5,9.7,7.1c0.4,1.1,0.6,2.2,0.9,3.3C563.8,266.4,563.8,266.5,563.8,266.7z"/>
	<path class="st17" d="M495.9,259.8c-0.6,0.1-1.2,0.2-1.8,0.4c-1.8,0-1.8-1-1.2-2.2c0.7-0.6,1.5-1.2,2.2-1.9
		c0.2-0.5,0.4-0.6,0.8-0.2c4.6-0.2,9.3-0.8,11.9,4.3c1.1,5.2,1,10.5,0,15.7c-3.4,0.9-6.9-0.8-10.6,0.8c-2.6,1.1-5.5-0.9-6.1-4.3
		c-0.5-3.1,0.6-5.6,3.8-6.6c1.9-0.6,3.9-0.8,5.8-1.3c2.9-0.8,3.5-2.2,1.2-4.4C500,260.1,498,259.9,495.9,259.8z"/>
	<path class="st18" d="M644,260c-0.9-0.2-2,1.2-2.7,0.2c-0.7-1-0.2-2.4,0.9-3c3.4-1.9,7.1-2,10.6-0.7c3,1.1,3.4,3.7,3.3,6.6
		c-0.1,3.5,0,7,0,10.5c0,1.5-0.5,3.4-2,2.5c-2.8-1.6-4.9,0.4-7.3,0.6c-3.2,0.4-6.1-0.5-6.9-4.1c-0.7-3.4,0.5-5.9,4-6.9
		c1.9-0.5,3.9-0.9,5.8-1.3c2.1-0.5,3-1.5,1.5-3.5C649,259.5,646.5,260.1,644,260z"/>
	<path class="st2" d="M114.2,105.2c0.1,5.6-1,9.3-3.3,12.7c-1.2,1.7-2.8,2.7-4.7,1.6c-2.1-1.2-2.4-3.1-1.1-5.2c3.2-5,3.1-10-0.1-15
		c-1.2-1.8-0.7-3.6,1.1-4.8c2-1.4,3.5-0.2,4.7,1.3C113.1,99,114.1,102.7,114.2,105.2z"/>
	<path class="st19" d="M660.1,260c2.7-4.3,6.8-4.8,11.3-3.9c1.5,0.3,2.6,1,2.3,2.6c-0.4,2-1.8,0.7-2.7,0.5c-0.8-0.1-1.6-0.3-2.5-0.4
		c-1.7,0-3.7-0.3-4.2,1.8c-0.6,2.2,1.4,2.7,3,3.2c1.4,0.5,2.8,0.9,4.2,1.4c2.5,0.9,3.7,2.6,3.6,5.3c-0.1,2.6-1.2,4.4-3.6,5.5
		c-2.7,1.2-5.5,1-8.3,0.3c-1.7-0.4-3.6-1.1-3-3.2c0.8-2.5,2.5,0.5,3.7-0.2c2-0.8,4,0.3,6-0.1c2.9-3.2-0.3-3.8-2.1-4.4
		c-2.9-1.1-6-1.6-7.8-4.6C659.3,262.5,659.1,261.2,660.1,260z"/>
	<path class="st20" d="M488.9,271.8c-3,4.8-7.6,6.4-12.8,4.4c-1.4-0.5-2.6-1.1-2.2-2.8c0.6-2.6,2-0.2,3-0.3c0.8,0,1.6,0.4,2.5,0.4
		c2,0.2,4.5,0.5,5.1-1.9c0.6-2.7-2.2-2.9-3.9-3.5c-2.3-0.9-5.2-1.1-6.3-3.6c-1.2-2.8-0.8-5.6,2-7.5c2.6-1.8,9.1-1.8,10.4,0
		c0.3,0.5,0.5,1.3,0.3,1.9c-0.3,1.2-1.2,0.7-2,0.6c-2.5-0.4-6.1-2.1-6.9,1.2c-1,3.8,3.4,3.2,5.6,4.1c2.3,0.9,4.1,2.1,5.3,4.3
		C489.7,270,489.8,270.9,488.9,271.8z"/>
	<path class="st21" d="M85.1,159.5c0.3-0.4,0.6-0.8,0.9-1.1c0.4-1.1,1.2-1.8,2.1-2.4l0,0c0.9-0.7,2-0.6,3-0.7c1.8,0.6,2.1,2,1.7,3.6
		c-0.1,0.7-1.1,0.9-0.9,1.7c0-0.7,0.5-0.9,1-1.2c4.6,0.9,7.7,4.4,11.3,6.9c1.2,0.9,2,2.4-0.1,3.5c-4.1,0.9-8.2,0.5-12.2,0.4
		c-5.6,0-6.5-1.1-6.7-6.6c0-0.8-0.1-1.6-0.2-2.4C84.7,160.6,84.8,160.1,85.1,159.5z"/>
	<path class="st22" d="M174,211c0-7.3,0-14.6,0-22c-0.5-0.7-1-1.4-1.1-2.3c-0.2-2-0.1-4-0.2-6c0-3.5,0-6.9,0-10.4
		c0-1.6,0.1-3.3,0-4.9c-0.4-5.5-3.3-8.5-8.7-8.8c-5.9-0.3-11.9-0.1-17.8-0.1c-0.9,0-1.8,0-2.6,0c-9.4,0.3-18.9-0.2-28.3,0
		c-0.6,0-1.2,0-1.8,0c-0.6,0-1.2,0-1.8,0c-4.7-0.2-9.4,0.8-14.1-0.8c-0.6-0.4-0.8-0.9-0.5-1.5c22.8-0.1,45.6-0.2,68.4-0.1
		c5.7,0,9.4,3.4,9.5,8.8c0.2,16.5,0.1,32.9,0.1,49.4c0,1.2-0.1,2.3-1.1,3.2C173.5,213.9,173.3,212.4,174,211z"/>
	<path class="st23" d="M630,255.9c1,1,1.5,3.8,3.7,0.9c0.9-1.1,2.6-1.5,4-0.7c0.5,0.2,0.5,1.4,0.5,2.2c0,2.4-1.8,1.7-3.1,1.9
		c-1.5,0.2-2.8,0.8-3.2,2.5c-0.9,3.6-0.3,7.3-0.4,10.9c-0.1,1.8-0.5,2.8-2.5,2.8c-2,0-2.5-1-2.5-2.8c0-5.1,0-10.3,0-15.5
		C626.5,255.5,627.7,255,630,255.9z"/>
	<path class="st24" d="M174,211c0,1.5-0.1,2.9-0.1,4.4c-0.2,0.2-0.5,0.5-0.7,0.7c-0.1-1-0.2-2-0.2-3c-2.9,2.5-8.2,0.2-13.5-6.1
		c4.9,0,9.2,0,13.6,0C173.3,208.3,172.7,209.9,174,211z"/>
	<path class="st25" d="M469.1,276c-1,0-2.1,0-3.1,0c-0.9-5.7-0.2-11.5-0.4-17.2c0-1.3,0.3-2.3,1.9-2.3c1.4,0,2.4,0.7,2.4,2
		C469.8,264.3,471,270.2,469.1,276z"/>
	<path class="st26" d="M85.1,159.5c0.1,0.5,0.1,1.1,0.2,1.6c0.6,3.2,0,6.5,1.1,9.6c0.1,0.6,0.1,1.2,0.1,1.8
		c-0.6,4.8,1.3,9.8-1.4,14.4c0,0.7,0,1.4,0,2.1c2.6,4.5,0.8,9.5,1.4,14.2c0,0.6,0,1.2,0,1.8c-0.2,3.2,0.6,6.5-0.9,9.6
		c-0.4,0.6-0.9,0.7-1.5,0.4c0-17.1-0.1-34.2-0.1-51.2C84,162.2,83.8,160.7,85.1,159.5z"/>
	<path class="st27" d="M469.1,276c0-5.3,0-10.6,0-16c0-1.2,0.4-3-1.7-2.8c-1.6,0.1-1.2,1.7-1.3,2.8c-0.1,5.3-0.1,10.6-0.1,16
		c-2.2-6.1-0.8-12.5-0.7-18.7c0-2.4,2.9-1.1,4.6-1.4c1.3,6.7,0.8,13.3,0.2,20C469.7,276,469.4,276,469.1,276z"/>
	<path class="st28" d="M603.4,256c-0.9,8.1-0.2,16.2-0.4,24.3c0,1.6,0.5,2.5,2.2,2.5c2,0,1.9-1.4,1.9-2.8c0-1.5-0.3-3.1,0-4.5
		c0.6-2.2,1.5-0.7,2.2,0.1c-2.2,1.6-1.1,4-1.4,6c-0.3,2.1-1.6,2.2-3.2,2.2c-1.5,0-2.7-0.4-2.7-2.1c0-8.3,0.1-16.5,0.3-24.8
		C602.3,256.7,603,256.4,603.4,256z"/>
	<path class="st29" d="M630,255.9c-2.2,0.1-3.2,0.9-3.1,3.4c0.2,4.6,0.1,9.3,0.1,14c0,1.6-0.1,3,2.2,3c2.5-0.1,1.8-1.8,1.9-3.2
		c0.4-3.4-0.9-7,0.8-10.3c0,3.5,0,7,0.1,10.4c0.1,2.2-0.3,3.9-3.2,3.8c-2.6-0.1-2.9-1.5-2.9-3.6c0-5.1,0-10.3,0-15.4
		C626,254.9,627.3,254.1,630,255.9z"/>
	<path class="st30" d="M132.1,99c1.5,5.3,1.5,10.7,0,16c-0.9,0.9-0.2,2.2-0.9,3.2l0.1-0.1c-1.2,0.7-0.4,2.2-1.1,3.1l0,0
		c-1-0.7-2-2-1.5-2.8c3.5-5.4,1.9-11.4,2.4-17.2C131.2,100.4,131.8,99.7,132.1,99z"/>
	<path class="st28" d="M594,261.8c1.3,3.4,0.3,6.9,0.7,10.2c0.2,1.5-1.1,4,2,4.1c3.1,0.1,2.1-2.3,2.2-3.9c0.1-3.8,0.1-7.6,0.1-11.4
		c2.1,4.6,1.1,9.5,0.8,14.1c-0.2,3.3-3.8,1.4-5.8,1.9C593.3,271.9,593.1,266.8,594,261.8z"/>
	<path class="st31" d="M594,261.8c0,5-0.1,10-0.1,15.1c-1.9-3.1-1-6.5-0.8-9.6c0.2-3.6-0.8-6-4.1-7.4C591.2,259,593.2,259,594,261.8
		z"/>
	<path class="st32" d="M61.9,372c-7.2,0-14.4,0-21.6,0c-0.4-0.5-0.3-1,0.2-1.1c7,0,14.1,0,21.2,0c0.1,0,0.3,0.2,0.3,0.2
		C62,371.5,61.9,371.7,61.9,372z"/>
	<path class="st33" d="M470,276c-0.1-6.7-0.1-13.4-0.2-20c2.1,7,1.7,14,0.2,21l0,0C470.1,276.6,470.1,276.3,470,276z"/>
	<path class="st34" d="M467.1,249.1c1.8,0.1,2.8,0.9,2.9,2.4c0.1,1.4-0.9,2.1-2.2,2.2c-1.5,0.2-2.7-0.4-2.9-2
		C464.7,250.1,466,249.5,467.1,249.1z"/>
	<ellipse class="st35" cx="566.3" cy="267.1" rx="0.5" ry="12.6"/>
	<path class="st36" d="M572.9,262.7c0-0.8,0.4-1.4,1.2-1.8c0,5,0,9.9,0,14.9c-0.4,0-0.8,0-1.2,0
		C572.9,271.5,572.9,267.1,572.9,262.7z"/>
	<path class="st37" d="M657.3,274.9c0-4.9,0-9.8,0-14.7c0.1,0,0.2,0,0.4,0c0,4.9,0,9.8,0,14.7C657.5,274.9,657.4,274.9,657.3,274.9z
		"/>
	<path class="st38" d="M507.9,275.9c0-5.2,0-10.5,0-15.7c2-0.5,1.2,1.1,1.1,1.7C508.5,266.5,510.3,271.4,507.9,275.9z"/>
	<path class="st39" d="M537,271.9c-2.7,1.3-5.3,1.3-8,0.1C531.6,270.3,534.3,270.4,537,271.9z"/>
	<path class="st40" d="M110,402.6c0.4-1.9,0.8-3.8,1.2-5.8c2,2.8,0.6,5.4-0.7,9.3C110.2,404.2,110.1,403.4,110,402.6z"/>
	<path class="st41" d="M97.1,372c-3.9,0-7.8,0-11.8,0C89.2,370,93.1,370.4,97.1,372z"/>
	<path class="st42" d="M644,260c2.6-1,5.1-2,7.3,0.8C648.9,260.6,646.3,261.8,644,260z"/>
	<path class="st43" d="M524.1,266.9c-1-2.6-1-5.3,0-7.9C525.5,261.6,525.5,264.3,524.1,266.9z"/>
	<path class="st44" d="M495.9,259.8c2-0.9,4.1-1.1,6,0.2C499.9,261.4,497.9,261.5,495.9,259.8z"/>
	<path class="st45" d="M97.1,154.1c0,0.3,0,0.6,0,0.8c-1.7,2.2-4.1,0.6-6.1,1c-1,0-1.9,0.1-2.9,0.1
		C90.6,153.1,93.9,154.1,97.1,154.1z"/>
	<path class="st46" d="M127,109.8c0-1.9,0-3.7,0-5.6c0.1-0.2,0.1-0.3,0.2-0.5c0.2-0.2,0.4-0.4,0.6-0.6c0.6,2.6,0.7,5.2,0,7.8
		c-0.1-0.1-0.3-0.1-0.3-0.2C127.2,110.4,127.1,110.1,127,109.8z"/>
	<path class="st47" d="M670,272.9c-2,1.3-4,0.8-6,0.1C666,271.4,667.9,271.5,670,272.9z"/>
	<path class="st48" d="M84.1,214.9c0.3,0,0.5,0.1,0.8,0.1c2.1,0.5,2.8,2.3,3.5,4c0.1,0.5-0.1,0.9-0.5,1.2
		C85.2,219.4,84.4,217.4,84.1,214.9z"/>
	<path class="st29" d="M622.9,269.9c0-2.6-0.1-5.3-0.1-7.9C624.7,264.6,624.5,267.2,622.9,269.9z"/>
	<path class="st49" d="M119.2,111.2c-2-2.2-1-4.7-0.4-7.2C119,106.4,119.1,108.8,119.2,111.2C119.2,111.2,119.2,111.2,119.2,111.2z"
		/>
	<path class="st50" d="M452.9,277.8c-1.5,0-3.1,0-4.6,0c0-0.1,0-0.3,0-0.4c1.5,0,3,0,4.6,0C452.8,277.5,452.9,277.6,452.9,277.8z"/>
	<path class="st51" d="M563.8,266.7c-0.2-0.2-0.2-0.3,0-0.5c0.2-0.8,0.4-1.5,0.7-2.8c0.7,2.2,0.7,3.9,0,6.1
		C564.2,268.2,564,267.4,563.8,266.7z"/>
	<path class="st52" d="M150.1,407.9c0-2-0.1-4-0.1-6C151.7,403.9,151.5,405.9,150.1,407.9z"/>
	<path class="st53" d="M502.8,254.5c-2.3,0.5-3.5,0.6-4.9,0C499.3,253.6,500.6,253.9,502.8,254.5z"/>
	<path class="st54" d="M506.9,277.2c-0.8,0.9-1.8,0.8-2.8,0.5C504.8,276.1,506,277.7,506.9,277.2z"/>
	<path class="st55" d="M488.9,271.8c0-0.9,0-1.8,0-2.7c1.9-0.4,0.9,1.1,1,1.6C490,271.1,490.5,272.6,488.9,271.8z"/>
	<path class="st56" d="M442.8,249.1c-1.2,0-2.5,0.1-3.7,0.1C440.3,248,441.5,246.8,442.8,249.1z"/>
	<path class="st57" d="M660.1,260c0,1.3,0,2.6-0.1,3.9C658.4,262.5,658.5,261.2,660.1,260z"/>
	<path class="st58" d="M470,276.9c-1.1,1.3-2.5,1.2-4.8,0.4C467.4,277.1,468.7,277,470,276.9C470,276.9,470,276.9,470,276.9z"/>
	<path class="st59" d="M540.9,254.9c0-0.6-0.1-1.1-0.1-1.7c0.3-0.4,0.4-1.7,0.8-1.1C542.4,253,542.1,254.2,540.9,254.9z"/>
	<path class="st60" d="M493,257.9c0.2,0.8,0.2,1.8,1.2,2.2c-0.3,0.6-1,1-1.5,0.6C491.8,259.8,492.2,258.8,493,257.9z"/>
	<path class="st61" d="M462,249.2c-1.3,0-2.6,0.1-3.9,0.1C459.3,247.4,460.6,247.5,462,249.2z"/>
	<path class="st45" d="M88.1,156c-0.2,1.2-1.3,1.7-2.1,2.4C85.9,156.9,86.5,156,88.1,156z"/>
	<path class="st52" d="M149,411.8c0.3-1.1,0.7-2.2,1-3.2C150.1,409.8,150.3,411.1,149,411.8z"/>
	<path class="st29" d="M622.1,271.9c0.3-0.7,0.5-1.4,0.8-2.1C623,270.7,622.9,271.4,622.1,271.9z"/>
	<path class="st32" d="M64.1,372.9c0.1-0.4,0.2-0.9,0.4-1.3C65.4,372.3,64.5,372.5,64.1,372.9C64.1,372.9,64.1,372.9,64.1,372.9z"/>
	<path class="st53" d="M496,255.9l-0.4,0.2l-0.4,0c-0.2-0.2-0.5-0.6-0.5-0.6C495.3,254.8,495.6,255.4,496,255.9z"/>
	<path class="st52" d="M155.2,405.9c-0.3,0.8-0.6,1.5-1,2.3C154.1,407.2,154.2,406.4,155.2,405.9z"/>
	<path class="st52" d="M153.9,408.9c-0.3,0.7-0.6,1.3-0.9,2C153.1,410.1,153.2,409.4,153.9,408.9z"/>
	<path class="st52" d="M153.1,410.9c-0.3,0.7-0.6,1.5-0.9,2.2C152.1,412.2,152.2,411.4,153.1,410.9z"/>
	<path class="st29" d="M620.9,273.9c0.3-0.5,0.6-1,0.9-1.4C621.5,272.9,621.2,273.4,620.9,273.9z"/>
	<path class="st29" d="M619.9,274.9c0.3-0.3,0.7-0.7,1-1C620.6,274.2,620.3,274.5,619.9,274.9z"/>
	<path class="st48" d="M89.1,220c0,0.3,0.1,0.6,0.1,0.9c-0.4-0.2-0.9-0.5-1.3-0.7c0.1-0.2,0.3-0.3,0.4-0.5
		C88.7,219.5,88.9,219.6,89.1,220z"/>
	<path class="st52" d="M148.4,412.8c0.2-0.4,0.4-0.7,0.6-1.1C148.8,412.1,148.6,412.5,148.4,412.8z"/>
	<path class="st0" d="M322,7.1c-10.3,26.3-20.6,52.5-30.9,78.8c-7,17.9-14.1,35.9-21.1,53.8c-0.7,1.8-1.2,3.7-3.2,5.3
		c-2.6-13.7-5.2-26.8-7.6-39.9c-3.9-20.7-7.7-41.3-11.5-62c-0.6-3.3-1.3-6.5-1.7-9.8c-1.3-10.9-5.6-20-14.9-26.3
		C261.4,7.1,291.7,7.1,322,7.1z"/>
	<path class="st62" d="M175.5,387.4c1.1,4.9,2,9.3,2.9,13.6c0.9,4.1-2.3,2.7-4,2.8c-5.6,0.2-5.6,0.1-3.7-5.2
		c1.3-3.4,2.5-6.8,3.8-10.2C174.6,388.2,174.7,388.1,175.5,387.4z"/>
	<path class="st63" d="M89.1,220c-0.2-0.1-0.5-0.2-0.8-0.3c-1.1-1.6-2.2-3.1-3.4-4.7c0.1-3.3,0.2-6.5,0.3-9.8
		c7.2-1.2,14.4-0.8,21.7-0.2c2.4,1.3,1.3,2.2-0.4,2.8c-2.2,0.8-4.6-0.1-7.2,0.9c2.7,3.5,6.9,4.4,9.9,7.1c1.4-2.8-0.6-6.1,2.3-8.1
		c0.6,0,0.9,0.3,1.2,0.8c0.2,0.5,0.4,1,0.5,1.5c0.1,0.5,0.1,1.1,0.2,1.6c-0.1,2.7,0.4,5.4-0.6,8c-0.2,0.5-0.5,0.9-1,1.2
		C104.2,220.5,96.6,221.5,89.1,220z"/>
	<path class="st64" d="M99,189.1c7,0,14.1,0,21.1,0.1c0.2,0.2,0.3,0.4,0.2,0.6c-0.1,0.2-0.1,0.3-0.2,0.3l0,0
		c-4.2,2.5-9,0.4-13.8,1.5c2.7,2.9,6.3,4,8.9,6.4c1.8,1.7,2-0.6,2.9-1.2c1.9-1.5,2.8-1.4,2,1.3c0.2,2.4-1.3,3.8-3,5
		c-1.1,1.4-2.6,2.3-4.3,2.2c-8.8-0.7-17.6,0.5-26.3-0.8c-1.4-1.4,0-1.9,0.9-2.3c1.5-0.7,3.1-0.5,4.7-0.5c5.4-0.2,10.7,0.6,16.1,1.1
		c-8.5-0.9-15.2-5.8-22.5-9.5c-0.4-2.7,0.6-3.9,3.5-3.8C92.4,189.5,95.7,189.9,99,189.1z"/>
	<path class="st65" d="M120.1,176c0,2,0,4,0,6c0.1,3.4-1.2,4.6-4.9,4.7c-5.1,0.1-9.3-1.7-13.4-4.2c-2.4-1.5-4.6-3.2-7-4.7
		c-1.6-0.9-3.3-2.2-2.7-4.2c0.6-2.2,2.9-1.7,4.7-1.8c3.8-0.3,7.6,0.4,11.3-0.7c3-0.4,6-0.8,8.8,0.6
		C118.7,172.4,120.5,173.4,120.1,176z"/>
	<path class="st66" d="M118.1,204c0.6-0.5,1.3-1,1.9-1.5c1.5-1.2,1.3-4.2,3.5-4.4c3.9-0.2,7.9,0.1,11.8,0.2c0.3,0,0.6,1,0.9,1.6
		c-2.5,1.1-5.2,0.1-7.7,0.2c-2.7,0.1-4.5,0.8-4.7,3.7c0,0.4-0.8,0.6-0.5,1c0.2,0.3,0.5-0.6,1-0.5c7.7,2,13.8,6.5,19.2,12.1
		c0.2,1.8-0.1,3.4-2.4,3.5c-3.8,0.1-7.4,0.4-10.9-1.9c-4.2-2.7-8.3-6-13.5-7.2c-0.8,2.2,0.1,4.4-0.7,6.4c-0.4,1.1-0.7,2.9-2.6,1.2
		c-0.7-2.9-0.1-5.9-0.4-8.8C112.7,205.8,114.5,204.1,118.1,204z"/>
	<path class="st67" d="M108.1,172.1c-4.9,2.1-10.1,0-15.8,1.4c3.8,4.1,8.3,6.8,12.7,9c2.7,1.4,4.8,4.1,8.7,3.7
		c3.3-0.4,5.4-1.1,6.4-4.2c0,0.3,0,0.6,0,1c0.7,1.3,0.7,2.6-0.1,3.9c-4.7,0-9.3,0-14,0.1c-5.6-1.1-11.2-0.3-16.8-0.4
		c-2.7,0-4.1-0.8-3.7-3.6c0.6-3.8-1.4-7.9,1.5-11.5C94.1,170.4,101.2,169.3,108.1,172.1z"/>
	<path class="st68" d="M136,188.9c0,0.4,0,0.7,0,1.1c0.1,4.5-1.9,6.1-6.4,5.6c-2-0.3-4.4-1.1-6.5,0.3c-2.1-5.2-0.4-10.6-0.9-15.9
		c0.2-0.2,0.4-0.4,0.6-0.6c4.2-1.3,8.5-1.2,12.7-0.1c0.2,0.2,0.4,0.4,0.6,0.6c0,2.4-0.1,4.7-0.1,7.1
		C135.4,187.7,135.5,188.3,136,188.9z"/>
	<path class="st69" d="M173.1,194c0,3,0,6,0,9c-3.1,1.1-6.3,0.2-9.5,0.5c-8.6-0.2-15.6-4.6-22.7-8.9c-1.5-0.9-2.8-2.1-2.1-4
		c0.5-1.7,2.2-1.9,3.7-1.9c3.3-0.1,6.6-0.4,9.9,0.4c4.3,2.7,8.7,5.4,13.1,8.1c3,1.8,5.3,3.1,5.9-1.9
		C171.4,194.4,172,193.7,173.1,194z"/>
	<path class="st70" d="M143.1,215.9c-6.4-2.8-11.2-8.6-18.1-10.5c-0.6-0.2-1.3-0.3-1.9-0.5l0,0c-1.2-4.4,0.2-6.6,5-6
		c2.7,0.3,5.6-0.4,8.2,1c1.6,3.2,4.8,4.4,7.6,6.1c-0.5,0.9-0.3,2-0.3,3C143.3,211.4,144.1,213.7,143.1,215.9z"/>
	<path class="st71" d="M143.1,215.9c0-2.7,0-5.3,0-8c0.3-0.4,0.6-0.5,0.9,0c0.4,12.8,0.4,12.8-12.3,12.8c-5.5,0-11,0.1-16.4,0.1
		c-0.4-0.2-0.8-0.6-1.2-0.9l0,0c-0.3-0.4-0.2-0.7,0.2-1c1.9-3.2,0.1-6.8,1.2-10.1c6.6,1.5,11.7,5.6,17.1,9
		C136.2,220.2,141.9,219.3,143.1,215.9z"/>
	<path class="st72" d="M153.1,190c-3.8,0-7.6,0-11.4,0c-1,0-2.1,0-2.4,1.2c-0.2,1.3,1.1,1.3,1.8,1.9c4.5,3.7,10.4,4.8,15,8.2
		c2.1,1.6,5-0.5,7,1.6c-3.4,1-6.9,0.2-10.4,0.5c-2.5,0.2-5.1-0.5-7.6,0.4c-5.1-0.8-7.5-3.7-7.1-8.9c0.2-2,0.1-4,0.1-5.9
		c0.7-0.8,1.6-1.3,2.6-1.3c7.4,0.2,14.9-1.4,22.1,1c0,3.5-2.9,2.4-4.7,2.7C156.4,191.7,154.6,191.1,153.1,190z"/>
	<path class="st73" d="M153.1,190c3.3-0.4,6.8,0.9,10-0.9c3.3-2.2,6.6-2.1,10-0.1c0,1.7,0,3.3,0,5c-0.3,0.4-0.8,0.8-0.8,1.2
		c-1.2,6.9-1.2,6.9-7.4,3C160.9,195.6,156,194.2,153.1,190z"/>
	<path class="st74" d="M174,169.9c0,3.7,0,7.4,0.1,11.2c-0.5,0.3-1,0.2-1.4-0.3c-0.6-0.9-0.8-1.9-0.8-2.9c-0.1-1.2-0.1-2.4-0.9-3.4
		c-2.7-2-5.7-0.9-8.6-1c-4.8-0.2-9.5,0.1-14.3,0c-1.2,0-2.5-0.1-3.7-0.1c-0.7,0.1-1.3,0.2-2,0.5c-1.8,0.7-2.6,2.1-3,3.9
		c-0.3,0.9-0.5,1.8-1.3,2.3c-0.6,0-1.3,0-1.9,0l0,0c-0.6-0.6-0.8-1.3-0.8-2.1c0.3-2.1,1.3-3.8,2.5-5.5c5.2-2.5,5.5-7,4.9-11.9
		c0-1.9-0.1-3.8,1.3-5.4c0.7,0,1.5,0,2.2,0c0.4,0.4,0.7,0.9,0.9,1.4c0.7,2.6,0.6,5.2,0.4,7.9c-0.1,3.2,1,4.4,4.3,4.3
		c6.9-0.2,13.8-0.4,20.8,0.3C173.1,169.2,173.5,169.5,174,169.9z"/>
	<path class="st75" d="M120.1,198c-2.9-1.3-2,1.8-3.4,2.9c-3.6-4.2-9.4-5.6-13.8-10.9c6.3,0,11.8,0,17.2,0
		C120.5,192.7,122,195.4,120.1,198z"/>
	<path class="st76" d="M108.1,172.1c-7,0-14,0-21,0c-0.6,0.4-1.2,0.5-1.9,0c0-0.5,0.1-1,0.1-1.5c1.4-1.8,3.4-1,5.1-1.1
		c6.6-0.2,13.3,0.6,19.7-1.4c2.1-1.5,1.2-3.6,1-5.5c-0.3-2.6-1-5.3,0.9-7.6c0.4,0,0.7,0,1.1-0.1c0.6,0.5,1.4,0.8,1.8,1.6
		c1.1,3.5,0.3,7.1,0.6,10.6c0.1,0.7,0.3,1.3,0.8,1.8c2,1.9,5.4,2.7,5.3,6.4c-0.1,0.2-0.3,0.4-0.4,0.6h-0.5h-0.5
		C117.2,171.1,112.6,171.9,108.1,172.1z"/>
	<path class="st77" d="M114.2,219c-0.1,0.3-0.1,0.7-0.2,1c-0.3,0-0.6,0-0.9,0.1c-0.2-0.2-0.3-0.4-0.5-0.6c-0.4-2.8,0.5-5.7-0.5-8.5
		c0.1-0.3,0.1-0.5,0-0.8c0.3-0.2,0.4-0.5,0.3-0.9c-0.1-0.3-0.2-0.4-0.3-0.4c0.1-0.3,0.1-0.6,0-0.9c-1.1-1.2-3-0.6-4.1-2
		c-7.6-0.6-15.3,0.6-22.8-0.8c0-0.4-0.1-0.9-0.1-1.3c0.3-0.4,0.7-0.4,1,0c10.3-0.3,20.7,1,31-0.9c0.3,0.3,0.7,0.6,1,1
		c-3.1,1.2-4.5,3.2-4.1,6.6C114.4,213.4,114.2,216.2,114.2,219z"/>
	<path class="st78" d="M173,189c-3.3,0-6.7,0.1-10,0.1c-8.3,0-16.6,0-24.9,0c-1.1-0.7-1.2-1.4-0.1-2.1c0.3,0,0.5,0,0.8,0
		c0.6-0.6,1.3-1,2.1-1.2c7-0.5,13.9-0.1,20.9-0.2c3.5,0.2,7.1-0.3,10.6,0.4c0.6,0.2,1.1,0.5,1.5,0.9c0,0.7,0,1.4,0.1,2.1l-0.5,0
		L173,189z"/>
	<path class="st79" d="M85.2,172.1c0.6,0,1.2,0,1.9,0c-1.8,3.8-0.8,7.8-0.8,11.8c0,2.5,2.1,2,3.7,2.1c5.4,0.5,10.8-1.1,16.1,0.9
		c-7,0-14,0-20.9,0.1C85.1,182,85.1,177.1,85.2,172.1z"/>
	<path class="st80" d="M86.1,203.9l-0.5,0.1l-0.5-0.1c0-4.9,0-9.9,0-14.8c4.6,0,9.2,0,13.9,0.1c-2.9,1.8-6.1,0.8-9.1,0.8
		c-3.1,0-4.2,1.2-3.8,4.1c0.5,4.4,4.1,6.4,7,9C90.8,203.3,88.2,202.1,86.1,203.9z"/>
	<path class="st65" d="M162.1,186.9c-7.6,0-15.3,0.1-22.9,0.1c-0.4,0.3-0.7,0.2-1-0.1l-0.1,0.1c0-2.3-0.1-4.7-0.1-7
		c0.1-1,0.1-1.9,0.2-2.9c1.9,0,2.1,1.6,2.1,2.8c0.1,4.1,2.5,4.8,5.9,4.7c4.6-0.1,9.3-0.3,13.9,0.2c0.6,0.1,1.1,0.3,1.6,0.7
		C162.3,185.9,162.4,186.4,162.1,186.9z"/>
	<path class="st81" d="M148.1,206c-1.8,3.5-0.9,7.2-0.9,10.8c0,2.5,2,2.2,3.6,2.2c3.7,0,7.5,0,11.2,1c-5.3,0-10.5,0-15.8,0
		c0-3.6-0.1-7.2-0.1-10.8C146.1,207.7,145.8,206,148.1,206z"/>
	<path class="st73" d="M152.1,203c3.7,0,7.3,0,11,0c3.3,0,6.6,0,10,0c-6.9,2.1-14,0.5-21,0.9c-0.3-0.2-0.4-0.4-0.3-0.6
		C151.9,203.1,152,203,152.1,203z"/>
	<path class="st82" d="M123.1,195.9c0.1-0.9,0.3-1.9,0.4-2.9c0.5,0.5,0.9,1.2,1.5,1.6c4.2,2,9.4-0.2,11-4.6c1,4.6-0.7,6.6-5.6,6
		C128,195.7,125.5,195.9,123.1,195.9z"/>
	<path class="st69" d="M152.1,203c0,0.3,0,0.6,0,0.9c-2.3,0-4.6,0-7,0C147.2,202.1,149.8,203.3,152.1,203z"/>
	<path class="st76" d="M122.1,180.1c-1.5-1.1-0.9-2.7-1.1-4.1l0.1-0.1c1.5-0.1,1.8,0.9,2.2,2C123.6,179,122.7,179.4,122.1,180.1
		L122.1,180.1z"/>
	<path class="st65" d="M120.1,186.9c0-1.3,0-2.6,0.1-3.9C121.3,184.3,121.5,185.6,120.1,186.9z"/>
	<path class="st82" d="M136,188.9c-0.9-0.6-1-1.3,0-1.9C136,187.7,136,188.3,136,188.9z"/>
	<path class="st66" d="M144,208h-0.5h-0.5c0.3-0.6,0.5-1.3,0.8-1.9C143.9,206.7,144,207.3,144,208z"/>
	<path class="st77" d="M114.1,220c0.4,0.3,0.8,0.6,1.2,0.9C114.8,220.6,114.5,220.3,114.1,220z"/>
	<path class="st77" d="M111.8,220.8c0.1-0.3,0.2-0.5,0.3-0.8c0.2-0.5,0.5-0.5,0.9-0.1l0.1,0.1C112.7,220.3,112.2,220.6,111.8,220.8z
		"/>
	<path class="st75" d="M120.1,190c0-0.3-0.1-0.6-0.1-0.9c0.2,0.2,0.3,0.4,0.4,0.6C120.4,189.8,120.2,189.9,120.1,190z"/>
	<path class="st0" d="M131.2,118.2c-0.1-1.2-0.4-2.4,0.9-3.2C132.1,116.2,132,117.2,131.2,118.2z"/>
	<path class="st0" d="M130.2,121.1c-0.1-1.2-0.4-2.4,1.1-3.1C131.3,119.2,131,120.3,130.2,121.1z"/>
	<path class="st83" d="M618,268.9c-0.5,3.6-3,4.6-6.1,4.1c-3.3-0.5-4.7-2.7-4.8-6c-0.1-3.4,0.3-6.5,4.1-7.5c3-0.8,5.6-0.1,6.6,3.4
		C617.6,265,617,267,618,268.9z"/>
	<path class="st84" d="M618,268.9c-1.5-2-1.4-3.9-0.1-6C618.7,265,618.7,266.9,618,268.9z"/>
	<path class="st85" d="M548,263.9c0.5-3.7,2.9-5.2,6.2-4.6c3.8,0.6,4.8,3.6,4.8,7c0,3.2-0.9,6.1-4.5,6.7c-3.2,0.6-5.9-0.3-6.5-4.2
		C548.8,267.2,548.8,265.6,548,263.9z"/>
	<path class="st86" d="M548,263.9c1.5,1.6,1.5,3.3,0,5C547.5,267.3,547.5,265.6,548,263.9z"/>
	<path class="st87" d="M503.4,269c-0.1,2.9-1.9,4.5-4.6,4.7c-2.1,0.2-3.8-1.1-3.5-3.2c0.5-3.8,4.1-3.2,6.6-3.8
		C503.8,266.2,503.3,267.9,503.4,269z"/>
	<path class="st88" d="M645.5,273.1c-0.3,0-0.4,0-0.5-0.3c-0.8-1.3-0.5-2.7-0.2-4l0,0c0.5-0.1,0.8-0.5,1.2-0.8
		c0.1-0.2,0.3-0.3,0.5-0.2c1.1-0.5,2.4,0,3.5-0.8c2.6,0.4,2.8,1.3,0.8,4.9c-0.2,0.3-0.4,0.6-0.8,0.7c-0.1,0.3-0.4,0.4-0.7,0.4
		C648,273.6,646.8,273.5,645.5,273.1z"/>
	<path class="st89" d="M644.8,268.8c0.1,1.3,0.1,2.7,0.2,4C643.5,271.5,643.3,270.2,644.8,268.8z"/>
	<path class="st89" d="M650,267c-0.9,1.2-2.2,0.9-3.5,0.8C647.5,267,648.8,267,650,267z"/>
	<path class="st89" d="M645.5,273.1c1.3,0,2.5,0,3.8,0C648,274,646.8,274.1,645.5,273.1z"/>
	<path class="st89" d="M646,268c-0.4,0.3-0.8,0.5-1.2,0.8C645.2,268.5,645.6,268.2,646,268z"/>
	<path class="st89" d="M650,272.7c0.3-0.2,0.5-0.5,0.8-0.7C650.5,272.2,650.3,272.4,650,272.7z"/>
	<path class="st90" d="M112,155c-1.1,4.9,2.7,9.9,0,14.9c-2.2-1.1-4.7,0.3-6.9-0.9c-3.7-3.9-8.1-6.8-13-9l0,0
		c-0.1-1.4,0.4-3-1.1-4.1c1.8-1.6,4.1-0.5,6.1-1C102.1,154.9,107,155,112,155z"/>
	<path class="st91" d="M105.1,169c2.3,0.4,4.8-0.9,6.9,0.9c-8.9,0.6-17.8-0.5-26.7,0.7c0-3.1,0-6.3,0-9.4c2.2,7.9,2.2,7.9,11.4,7.9
		C99.5,169,102.3,169,105.1,169z"/>
	<path class="st90" d="M92.1,160c-0.1,0.4-0.2,0.9-0.4,1.3C90.8,160.6,91.7,160.3,92.1,160L92.1,160z"/>
	<path class="st92" d="M174,169.9c-0.3,0-0.6,0.1-0.9,0c-0.9-0.9-0.2-2.2-0.6-3.2c0.2,1.6-0.2,2.7-2.2,2.7c-3.3,0-6.5,0.2-9.5-1.9
		c-5.2-3.5-10.5-6.9-14.7-11.6c0-0.3,0-0.6,0-1c5.3,0,10.6,0,15.9,0c8.9,0,11.9,3,11.9,11.9C174,167.9,174,168.9,174,169.9z"/>
	<path class="st93" d="M114.1,169c0-4.3,0-8.7,0-13c-0.3-0.2-0.3-0.5-0.2-0.6c0.1-0.2,0.2-0.3,0.3-0.3c9.9,0,19.9,0,29.8,0
		c0,2,0.1,4,0.1,6c-1.2,8.1-1.4,8.1-9,4.4c-3.3-1.6-6.3-3.5-8.8-6.3c-2.8-3-7.1-2.5-9.7,0.6c-0.4,3,0.5,6.1-1,8.9
		C115.2,169.2,114.7,169.3,114.1,169z"/>
	<path class="st94" d="M174,186.9c-0.3,0-0.6,0.1-0.9,0.1c-1.5-2-1.7-4,0.1-6c0.3,0,0.6,0.1,0.9,0.1C174,183,174,184.9,174,186.9z"
		/>
	<path class="st45" d="M114.2,155.1c0,0.3-0.1,0.6-0.1,0.9c-0.3-0.3-0.7-0.7-1-1C113.4,155,113.8,155,114.2,155.1z"/>
	<path class="st95" d="M108.1,206c1.3,0.8,4.3-2.1,4.1,2c-2.5,3.1,0.1,7.1-1.9,10.9c-3.2-4.4-8.6-5.3-12.2-8.9
		c-0.6-0.6-1.6-1-1.4-1.8c0.2-1.3,1.4-1,2.4-1.1C102,206.5,105.2,208,108.1,206z"/>
	<path class="st95" d="M113,219.9c-0.3,0.1-0.6,0.1-0.9,0.1c0-3,0-6.1,0-9.1C113.8,213.7,112.6,216.9,113,219.9z"/>
	<path class="st95" d="M112.1,208.9c0.6,0.4,0.6,0.8,0,1.2C112.1,209.7,112.1,209.2,112.1,208.9z"/>
	<path class="st96" d="M93.1,203c-0.2-0.2-0.5-0.6-0.7-0.6c-6.7,0.6-6.7-3.7-6.2-8.4c5.3-0.7,9.2,2.9,13.4,4.9
		c3.4,1.7,6.3,4.1,10.4,4.1C104.3,203,98.7,203,93.1,203z"/>
	<path class="st70" d="M123.1,205c-0.1,0.1-0.2,0.3-0.2,0.4C122.9,205.2,123,205.1,123.1,205L123.1,205z"/>
	<path class="st65" d="M89.8,175c-0.1,0.1-0.2,0.2-0.3,0.3c-0.1-0.1-0.2-0.3-0.2-0.4c0-0.1,0.2-0.2,0.3-0.4
		C89.7,174.8,89.8,174.9,89.8,175z"/>
	<path class="st97" d="M122.1,180.1c0.3-0.7,0.6-1.3,0.9-2c4.3-2.4,8.6-2.3,13-0.1c0,0.7,0,1.4,0,2C131.4,180,126.8,180,122.1,180.1
		z"/>
	<path class="st98" d="M115.1,159c-0.1-2.1,0.7-3.1,2.9-3c4.1,0.1,8.1-0.9,11,4c2.2,3.8,7.5,4.6,11.5,6.6c1.6,0.8,2.4-0.2,2.5-1.9
		c0.1-1.3-0.3-2.7,1-3.7c0.4,5.1,0.9,10.4-5.9,12.1c-2.2,1.1-4.2,1-6.5-0.3c-3.9-2.2-7.7-4.7-11.5-6.9
		C117.6,164.4,115.3,162.3,115.1,159z"/>
	<path class="st73" d="M115.1,159c5.9,7.6,13.8,12,23.1,14.1c-0.7,1.6-1.4,3.2-2.1,4.9c-4.3,0-8.7,0.1-13,0.1
		c-0.6-0.7-1.2-1.4-1.9-2.1c-0.7-3.4-3.5-4.6-6.1-5.9c-0.2-0.2-0.3-0.5-0.3-0.7c0.1-0.2,0.2-0.4,0.2-0.4
		C115.1,165.6,115.1,162.3,115.1,159z"/>
	<path class="st99" d="M161.1,186c-5.6,0-11.2-0.3-16.8,0.1c-4.2,0.2-5.7-1.2-5.2-5.3c0.2-1.2,0.4-2.7-0.9-3.7
		c0.8-1.8,1.4-3.9,3.9-4.1c0.2-0.3,0.4-0.4,0.7-0.2c0.2,0.1,0.3,0.2,0.3,0.4c0,0,0.2,0,0.2,0c-0.2-0.1-0.3-0.2-0.4-0.4
		c-0.1-0.3,0-0.4,0.2-0.6c1.3,0,2.6-0.1,4-0.1c0.6,1.9-0.7,3.2-1.7,4.6c-0.1,0.5-0.9,0.2-1,0.7c0.6-0.2,1-0.7,1.6-1
		c6.3-0.5,10,4.5,15,7C161.8,183.8,161.9,185.1,161.1,186z"/>
	<path class="st100" d="M145.1,177c-0.4-2.1,1-3.4,2-4.9c7.4,0,14.8-0.1,22.2,0c1.5,0,3.5-0.6,3.8,1.9c-4.9,0.9-9.9-0.2-15.7,0.6
		c5.5,2.4,9,6.8,14.3,8c0.8,0.2,0.8,0.9,0.9,1.6c0,1.6-0.8,2.4-2.4,2.2c-2.7-0.2-5.4,0.5-8.1-0.5h-0.5h-0.5
		C156.8,181.1,151.5,178,145.1,177z"/>
	<path class="st101" d="M146.1,156c1.3,0.1,2.9-0.5,3.6,0.9c3.1,6,9.7,7.5,14.5,11.3c3.5,2.8,7.3,0.6,8.8-4.2c0,1.9,0,3.9,0,5.8
		c-8.1,0.1-16.2-0.1-24.4,0.3c-2.5,0.1-2.7-0.8-2.7-2.7C146.1,163.6,146.1,159.8,146.1,156z"/>
	<path class="st94" d="M172.1,183c-1.9,0.9-3.5,0.1-5.1-0.7c-3.3-1.7-5.4-5.4-9.6-5.9c-0.6-0.1-1.4-1.6-1.4-2.4c0-1.4,1.5-1,2.3-0.9
		c4.9,0.4,10-1,14.8,1c0,1.3,0,2.7,0,4C171.8,179.5,173.3,181.5,172.1,183z"/>
	<path class="st99" d="M172.1,183c0.2-1.7-0.7-3.6,1-5c0,1,0,2,0,3c0,2,0,4-0.1,6c-3.7,0-7.3,0-11,0c0-0.3,0-0.6,0-1
		c2.4,0,4.9-0.1,7.3,0C171.5,186.1,172.2,184.9,172.1,183z"/>
	<path class="st100" d="M143.1,172.1c0,0.3,0,0.6,0,0.9l0,0c-0.4,0-0.7,0-1.1,0C142.4,172.7,142.7,172.4,143.1,172.1z"/>
	<path class="st98" d="M115.1,169c0,0.4,0,0.7,0,1c-0.3-0.3-0.7-0.7-1-1C114.4,169,114.7,169,115.1,169z"/>
	<path class="st99" d="M138.2,186.9c0.3,0,0.6,0.1,1,0.1C138.8,187.5,138.4,187.6,138.2,186.9z"/>
	<path class="st100" d="M143.1,174c0,0.6,0.9,1.1,0,1.7c-0.1,0.1-0.4,0-0.4-0.1C142,174.8,142.4,174.4,143.1,174L143.1,174z"/>
	<path class="st100" d="M144.8,177.4c-0.2,0.1-0.6,0.4-0.8,0.3c-0.4-0.2-0.3-0.5,0.1-0.6c0.3-0.1,0.6-0.1,0.9-0.1
		C145,177.1,144.9,177.2,144.8,177.4z"/>
	<path class="st100" d="M143.1,173c0.7,0.3,0.7,0.7,0,1l0,0C143.1,173.6,143.1,173.3,143.1,173C143.1,173,143.1,173,143.1,173z"/>
</g>
</svg>
